<?xml version="1.0" encoding="utf-8"?>
<!-- Generator: Adobe Illustrator 27.2.0, SVG Export Plug-In . SVG Version: 6.00 Build 0)  -->
<svg version="1.1" xmlns="http://www.w3.org/2000/svg" xmlns:xlink="http://www.w3.org/1999/xlink" x="0px" y="0px"
	 viewBox="0 0 500 500" style="enable-background:new 0 0 500 500;" xml:space="preserve">
<style type="text/css">
	.st0{fill:#FCBE38;}
	.st1{fill:#D07F28;}
	.st2{clip-path:url(#SVGID_00000025405668051427844560000001785177479668819842_);}
	.st3{fill:#FEEECE;}
	.st4{fill:#F7D2A8;}
	.st5{fill:#D1B799;}
	.st6{fill:#F09686;}
	.st7{fill:#FFFFFF;}
	.st8{opacity:0.3;}
	.st9{fill:#B5C4D5;}
	.st10{fill:#99ACC2;}
	.st11{fill:#58423C;}
	.st12{fill:#453835;}
	.st13{fill:#272525;}
	.st14{font-family:'Mustardo';}
	.st15{font-size:76.0899px;}
	.st16{font-family:'Montserrat-SemiBold';}
	.st17{font-size:11.9755px;}
	.st18{letter-spacing:4;}
</style>
<g id="BACKGROUND">
</g>
<g id="OBJECTS">
	<g>
		<circle class="st0" cx="247.4" cy="250.03" r="169.07"/>
		<circle class="st1" cx="247.4" cy="250.03" r="154.56"/>
	</g>
	<g>
		<defs>
			<path id="SVGID_1_" d="M390.16,190.69c7.6,18.27,11.8,38.31,11.8,59.34c0,85.36-69.2,154.55-154.56,154.55
				S92.84,335.39,92.84,250.03l-31.47-29.16l35.4-34.99l8.11,4.25c23.4-55.61,78.4-94.66,142.52-94.66c3,0,5.99,0.09,8.95,0.26
				l13.27-47.59l53.55-22.98l70.03,15.63l45.43,101.43L390.16,190.69z"/>
		</defs>
		<clipPath id="SVGID_00000129905490308867229960000002508568812965082505_">
			<use xlink:href="#SVGID_1_"  style="overflow:visible;"/>
		</clipPath>
		<g style="clip-path:url(#SVGID_00000129905490308867229960000002508568812965082505_);">
			<path class="st3" d="M177.85,418.82c-1.12-0.42-2.03-1.2-2.62-2.19c-10.21-8.72-16.1-17.71-17.54-26.77
				c-0.4-0.55-0.69-1.17-0.85-1.83c-1.58-1.31-4.1-3.31-6.9-5.52c-4.33-3.42-9.72-7.69-14.96-12.05
				c-9.56-7.94-15.64-13.76-18.77-17.97c-1.63-0.58-2.91-1.99-3.29-3.75l-0.06-0.29c-0.13-0.59-0.27-1.26-0.38-1.97l-0.02-0.14
				l-0.17-2.05c-0.09-1.17-0.1-2.23-0.1-3.26l0-0.99c0.05-2.86,0.18-5.43,0.41-7.87c0.41-4.47,0.96-9.27,1.74-15.07
				c0.66-5.11,1.48-10.32,2.21-14.93c0.42-2.73,0.83-5.19,1.26-7.5c0,0,0.41-2.29,0.6-3.31c-0.65-0.36-1.24-0.76-1.8-1.21
				c-2.37-1.88-3.76-4.21-4.7-6.03c-1.05-2.06-1.74-4.07-2.28-5.76c-1.29-4.26-2.15-8.44-2.98-12.48c-0.57-2.77-1.11-5.39-1.77-7.98
				c-0.44-1.74-0.86-3.24-1.3-4.58c-0.27-0.82-0.51-1.48-0.74-2.06c-0.21-0.52-0.49-1.09-0.79-1.64c-1.46-2.6-3.67-5.01-5.44-6.82
				c-1.68-1.72-3.46-3.36-5.34-5.11c-0.65-0.61-1.31-1.21-1.97-1.83c-1.23-1.15-2.64-2.5-3.99-3.99c-1.27-1.45-2.96-3.37-3.99-6.14
				c-0.79-2.27-0.75-4.67,0.08-6.66c0.39-0.91,0.93-1.79,1.54-2.51c0.38-0.48,0.89-1.08,1.59-1.64c1.14-1.02,2.55-1.78,4.3-2.31
				l0.15-0.04l0.15-0.03c0.7-0.16,1.42-0.28,2.12-0.34l0.25-0.02l0.25,0.01c0,0,0.57-0.01,0.72-0.01c0.45,0,0.85,0.03,1.23,0.08
				c2.78,0.32,5.11,1.32,6.62,2.06c0.57,0.28,1.13,0.57,1.69,0.89c-0.2-0.23-0.41-0.45-0.62-0.67l-2.02-2.09l-0.07-0.08
				c-0.96-1.09-1.72-2.15-2.32-3.24c-0.83-1.56-1.33-3.09-1.53-4.6c-0.25-1.91,0.01-3.85,0.75-5.59c1.3-3.15,4.23-5.62,7.82-6.58
				c1.24-0.33,2.52-0.5,3.81-0.5c4.12,0,8.34,1.72,11.56,4.72c0.79,0.71,1.53,1.45,2.22,2.22c-0.09-0.26-0.18-0.53-0.28-0.83
				l-0.4-1.41c-0.28-0.85-0.33-1.61-0.35-2.08l-0.01-0.2l-0.02-0.16l-0.02-0.3c-0.02-0.29-0.04-0.58-0.04-0.88v-0.28l0.13-1.06
				c0.38-3.42,2.47-6.69,5.47-8.46c1.82-1.12,4.03-1.73,6.34-1.73c0.97,0,1.94,0.11,2.89,0.33c2.55,0.53,4.91,1.86,7.21,4.05
				l0.09,0.09l1.14,1.22l0.06,0.07c0.38,0.44,0.67,0.87,0.88,1.18c0.06,0.09,0.27,0.38,0.27,0.38l0.07,0.11
				c0.05,0.08,0.1,0.15,0.16,0.23c0.25,0.35,0.59,0.83,0.89,1.46l0.56,1.12c0.47,0.87,0.78,1.68,1.06,2.4l0.2,0.52
				c0.3,0.72,0.55,1.45,0.79,2.15l0.21,0.59c1.22,3.6,2.14,7.41,2.72,11.35c0.11,0.74,0.21,1.47,0.29,2.19
				c2.34-1.16,4.58-1.87,6.81-2.16c1.48-0.22,2.89-0.25,3.96-0.25l0.81,0.01l0.38,0.01c0.6,0.02,1.2,0.04,1.79,0.1l1.12,0.09
				l1.24,0.21c3.36,0.62,6.51,2.21,9.46,4.74c2.18,1.88,4.14,4.12,5.99,6.84c1.69,2.51,3.09,5.13,4.15,7.8
				c0.89,2.28,1.48,4.67,1.76,7.15c0.8-0.48,1.71-0.74,2.65-0.74c0.91,0,1.81,0.24,2.6,0.7l0.1,0.06c1.86,1.09,3.71,1.65,5.49,1.65
				c0.57,0,1.14-0.06,1.7-0.17c2.4-0.43,4.84-1.41,7.19-2.52c0.08-0.23,0.16-0.45,0.23-0.67l0.04-0.12
				c1.99-5.55,3.32-12.02,4.07-19.79c0.49-5.13,0.69-10.28,0.59-15.32c-0.35-0.52-0.61-1.1-0.75-1.74c-0.29-1.3-0.08-2.61,0.54-3.69
				c0-0.04,0-0.08-0.01-0.12c-0.23-4.02-0.6-7.19-1.17-10l-0.02-0.11c-0.11-0.6-0.23-1.51-0.27-2.29l-0.01-0.26
				c0,0,0.03-0.52,0.04-0.66c0.02-0.48,0.04-1.08,0.16-1.73c0.2-1.26,0.52-2.38,0.81-3.27c-2.09-0.13-3.91-1.51-4.58-3.52
				c-0.43-1.3-0.34-2.69,0.26-3.91c2-4.06,4.67-7.27,7.94-9.54c0.36-0.29,0.73-0.55,1.1-0.79c-0.45-0.89-0.88-1.79-1.3-2.69
				c-0.58-1.27-0.98-2.28-1.32-3.3c-0.25-0.68-0.42-1.37-0.58-2.01l-0.03-0.13c-0.08-0.37-0.13-0.79-0.18-1.21l-0.03-0.3l-0.01-0.13
				c-0.04-0.71,0.04-1.34,0.1-1.8l0.05-0.4l0.06-0.25c0.52-2.12,1.47-3.51,2.17-4.52l0.09-0.14c0.68-0.96,1.3-1.71,1.9-2.44
				l0.26-0.32l0.63-0.74c2.26-2.69,4.4-5.23,5.96-7.9c0.79-1.34,1.51-2.86,2.28-4.47l0.84-1.77c0.63-1.34,1.26-2.69,1.93-4.04
				c0.91-1.84,2.01-3.98,3.58-6.11l0.09-0.12c0.81-1.03,1.73-2.2,3.17-3.29c0.89-0.74,1.84-1.19,2.62-1.56l0.34-0.16l0.41-0.12
				c0.78-0.22,1.83-0.51,3.09-0.51c0.19,0,0.39,0.01,0.58,0.02c1.3,0.02,2.31,0.37,2.99,0.61l0.31,0.1c0.34,0.12,0.57,0.21,0.79,0.3
				c0.07,0.03,0.14,0.06,0.23,0.09l0.18,0.05c0.69,0.22,1.51,0.43,2.42,0.66c1.15,0.27,2.36,0.52,3.58,0.78
				c0.68,0.14,1.37,0.28,2.05,0.43l0.16,0.03c3.81,0.78,7.74,1.58,11.64,2.54l0.34,0.09c2.33,0.61,4.71,1.23,7.09,2.03l11.12-23.04
				c-1.01-0.56-2.01-1.17-3.01-1.83c-3.6-2.43-6.33-5.04-8.37-8.02c-2.56-3.7-3.93-8.05-3.84-12.24c0.04-2.19,0.35-4.23,0.9-6.07
				c0.19-0.75,0.44-1.4,0.64-1.93c0.08-0.21,0.16-0.43,0.24-0.64l0.09-0.26l0.12-0.24c0.1-0.21,0.19-0.42,0.28-0.62
				c0.25-0.56,0.52-1.19,0.92-1.86c2.19-4.05,5.43-7.18,9.14-8.83c2.48-1.15,5.31-1.74,8.35-1.74c1.27,0,2.57,0.11,3.87,0.31
				c3.45,0.56,6.95,1.79,10.41,3.66c1.1,0.6,2.14,1.24,3.12,1.92c0.36-0.6,0.73-1.2,1.13-1.79c1.64-2.53,3.65-5.01,5.95-7.34
				c4.87-4.87,10.68-8.33,16.84-10.04c3.17-0.92,6.51-1.39,9.86-1.39l0.44,0c3.12,0,6.26,0.35,9.32,1.03
				c5.5,1.16,11.15,3.37,17.24,6.74c5.78,3.26,10.74,7.01,14.79,11.18c4.82,5.07,8.32,10.49,10.42,16.13
				c2.4,6.23,3.26,12.91,2.46,19.28c-0.5,3.74-1.43,6.93-2.84,9.78c-0.16,0.34-0.34,0.67-0.51,0.99c5.68,2.32,10.83,6.38,14.7,11.73
				l0.09,0.13c0.17,0.25,0.34,0.49,0.52,0.73c0.45,0.61,0.96,1.31,1.41,2.14l1.55,2.72l0.04,0.08c0.37,0.72,0.67,1.4,0.96,2.07
				c0.13,0.3,0.26,0.6,0.4,0.9l0.73,1.67l0.53,1.58c1.74,4.73,2.6,9.33,2.56,13.68c-0.13,5.73-1.99,10.97-5.24,14.8
				c-3.25,3.88-8,6.68-13.36,7.85c-2.04,0.47-4.24,0.72-6.49,0.72l0,0c-2.58,0-5.24-0.32-7.91-0.96c-2.92-0.68-5.82-1.82-8.56-3.37
				c-0.33,0.38-0.66,0.76-0.99,1.14c-1,1.14-1.96,2.2-2.92,3.23c1.29,0.11,2.56,0.21,3.82,0.31c0.75,0.07,1.45,0.15,2.19,0.25
				l0.16,0.02c0.73,0.12,1.72,0.27,2.98,0.74c0.53,0.19,1.02,0.45,1.47,0.71c0.44,0.26,0.78,0.52,1.05,0.75
				c0.42,0.34,0.8,0.73,1.15,1.18c0.71,0.89,1.23,2.02,1.47,3.22l0.04,0.21c0.17,1.14,0.12,2.19-0.17,3.22
				c-0.23,0.9-0.53,1.47-0.82,1.96l-0.07,0.12c-0.29,0.51-0.56,0.84-0.8,1.13l-0.1,0.12c-0.45,0.54-0.84,0.9-1.13,1.17l-0.19,0.18
				l-0.09,0.07c-2.26,1.89-4.38,3.12-6.43,4.31l-0.56,0.33c-1.75,0.99-3.49,1.94-5.21,2.85c1.58,0.86,2.87,1.88,3.93,3.08
				c0.85,0.97,1.54,2.11,2.03,3.38c0.5,1.33,0.74,2.94,0.64,4.26c-0.09,1.84-0.41,3.38-0.72,4.65c-1.29,5.24-3.17,10.12-4.82,14.42
				c-2.77,7.08-5.96,14.48-9.74,22.61c0.34,2.18,0.58,4.43,0.72,6.87c0.11,2.6,0.22,5.21-0.38,8.35l-0.1,0.43
				c-0.19,0.77-0.5,2.07-1.54,3.62l-0.11,0.17l-0.12,0.15c-0.35,0.43-0.87,1.02-1.45,1.51c-0.41,0.36-0.78,0.63-1.05,0.83
				c-1.22,0.89-2.36,1.58-3.42,2.19c-2.22,1.28-4.41,2.4-6.26,3.33c-7.04,3.42-14.43,6.65-22.05,9.63c-0.12,1.09-0.26,2.2-0.41,3.37
				c-0.52,3.91-1.13,7.66-1.81,11.19c-1.72,9.07-3.57,15.92-6.01,22.23l-0.08,0.21l-0.34,0.78c-0.68,1.54-1.38,3.13-2.37,4.76
				c-0.6,1.13-1.33,2.07-1.98,2.9c0,0-0.18,0.25-0.27,0.35c0.39,0.19,0.79,0.38,1.18,0.57c2.32,1.12,4.62,2.24,6.93,3.33
				c2.97,1.45,5.83,2.71,8.56,3.77l0.16,0.06c0.59,0.22,1.15,0.43,1.62,0.56l1.31,0.42c0.71,0.21,1.48,0.52,2.21,0.89
				c2.93,1.43,4.9,3.64,6.12,5.17c3.07,3.97,4.53,8.11,5.48,11.27c0.99,3.25,1.67,6.71,2.15,10.88c0.79,7.24,0.66,14.42-0.37,21.37
				c-0.3,2.04-1.81,3.67-3.73,4.2c-4.35,2.7-15.33,9.35-23.97,14.37c-10.93,6.35-12.58,6.85-13.66,7c-0.05,0.01-0.11,0.03-0.18,0.05
				c-0.62,0.17-1.58,0.47-2.88,0.87c-11.16,3.44-45.12,13.91-85.94,17.11l-1.93,0.14c-7.18,0.52-14.3,0.79-21.19,0.79
				c-4.59,0-9.16-0.12-13.63-0.35l-0.49,3.99L177.85,418.82z M164.76,290.95c1.38,4.8,2.72,10.07,4.14,16.33
				c0.4,1.79,0.76,3.43,1.09,4.98c0.56-0.64,1.15-1.26,1.75-1.85c2.13-2.13,4.17-3.68,6.38-4.84c0.7-0.41,1.38-0.68,1.94-0.9
				l0.57-0.22c0.34-0.13,0.68-0.26,1.04-0.36l0.22-0.05l0.96-0.21l1.45-0.29l1.59-0.02l1.22,0.02l0.9,0.09
				c1.31,0.14,2.67,0.21,4.01,0.26l-0.34-0.59c-0.36-0.61-0.71-1.22-1.04-1.84l-0.06-0.11l-1.35-2.93c-2-4.79-3.02-9.09-3.13-13.16
				c-0.19-4.23,0.44-8.71,1.88-13.23c2.75-8.24,7.28-15.05,11.27-21.05l0.6-0.88c-1.97-0.3-3.71-0.85-5.28-1.67
				c-1.52-0.68-2.7-1.61-3.65-2.37c-0.93-0.75-1.63-1.57-2.2-2.25c-0.34,1-0.81,1.95-1.38,2.8c0.71,1.42,1.21,3.05,1.5,4.92
				c0.24,1.44,0.32,2.97,0.27,4.91c-0.13,3.06-0.59,6.03-1.37,8.9c-1.71,6.25-4.93,11.71-9.33,15.77c-2.15,2.03-4.7,3.82-7.56,5.28
				c-1.27,0.64-2.59,1.21-4,1.71C166.23,289.09,165.54,290.04,164.76,290.95z M158.9,236.76l-0.09,0.14
				c-0.86,1.28-1.45,2.83-1.69,4.47c-0.3,2.1-0.34,4.08-0.12,5.86c0.24,2.3,0.67,4.08,1.32,5.54c0.71,1.65,1.63,2.97,2.69,3.87
				c0.86,0.76,1.87,1.2,2.78,1.24c0.14-0.01,0.25-0.03,0.34-0.05c0.03-0.05,0.06-0.12,0.1-0.2c0.55-1.18,0.89-2.94,1.25-4.81
				l0.21-1.08c0.27-1.35,0.58-2.87,1.18-4.56c0.32-0.88,0.69-1.67,1.12-2.4c-0.64-1.16-1.14-2.28-1.61-3.31
				c-0.28-0.62-0.55-1.22-0.84-1.81c-1.02-2.11-1.92-3.47-2.88-4.37c-0.3-0.25-0.66-0.39-0.99-0.39c-0.11,0-0.23,0.02-0.34,0.05
				l-0.17,0.05l-0.17,0.04c-0.15,0.04-0.46,0.21-0.93,0.51c-0.1,0.09-0.21,0.18-0.31,0.27c-0.08,0.07-0.17,0.14-0.25,0.21
				c-0.14,0.17-0.29,0.34-0.44,0.51c-0.05,0.05-0.1,0.11-0.14,0.16L158.9,236.76z"/>
			<g>
				<g>
					<g>
						<path class="st4" d="M355.46,240.77c-0.16-2.13-0.49-4.26-0.85-6.4c-0.75-4.25-1.8-8.5-3.35-12.4
							c-0.76-1.95-1.67-3.85-2.78-5.29c-0.54-0.72-1.17-1.27-1.65-1.53c-0.45-0.26-0.99-0.33-1.76-0.18
							c-1.53,0.32-3.32,1.43-4.96,2.68c-1.65,1.27-3.23,2.75-4.76,4.29c-3.05,3.1-5.97,6.46-8.79,9.89l-0.01,0.02
							c0,0.01-0.01,0.01-0.03,0.01c-0.05,0.07-0.1,0.14-0.19,0.19c-1.51,0.88-3.1,1.55-4.95,1.71c-0.91,0.07-1.91,0-2.84-0.39
							c-0.46-0.2-0.94-0.44-1.33-0.79c-0.35-0.23-0.88-0.86-1.06-1.37c-0.42-1.01-0.48-1.9-0.56-2.79c-0.05-0.89-0.04-1.74,0-2.59
							c0.08-1.69,0.23-3.34,0.42-4.99c0.39-3.28,0.85-6.53,1.28-9.74c0.42-3.22,0.8-6.45,0.76-9.5c0-3.02-0.95-5.58-3.1-7.33
							c-2.09-1.86-5.32-2.96-8.15-5.39c-0.35-0.31-0.7-0.61-1.01-0.98l-0.49-0.52c-0.17-0.26-0.35-0.52-0.52-0.78
							c-0.53-1.05-0.7-2.02-0.82-2.94c-0.18-1.84-0.05-3.56,0.16-5.25c0.37-2.78,1.01-5.47,1.78-8.1
							c-3.83-1.64-7.63-3.35-11.38-5.17c-4.07-1.93-8.07-4.01-12.06-6.13c-3.97-2.12-7.92-4.29-11.8-6.59
							c-6.18-3.68-12.23-7.57-17.98-11.9c-1.32-0.98-2.62-1.99-3.9-3.03c-2.28,2.57-4.52,5.23-6.73,7.89
							c-2.33,2.8-4.63,5.64-6.85,8.52c-4.41,5.78-8.71,11.74-11.99,18.05c-0.79,1.57-1.54,3.17-2.03,4.77
							c-0.48,1.62-0.78,3.17-0.42,4.41c0.88,3.75,1.37,7.43,1.68,11.15c0.64,7.41,0.66,14.86,0.12,22.3
							c-0.09,1.22-0.19,2.42-0.33,3.64c-0.65,6.22-1.84,12.42-3.88,18.48c-1.13,3.63-2.9,7.12-4.89,10.49
							c-0.81,1.24-1.63,2.48-2.47,3.72c-1.2,1.82-2.42,3.64-3.63,5.44c-4,6.06-7.87,12.16-9.99,18.66c-1.02,3.25-1.52,6.57-1.4,9.88
							c0.05,3.31,1.03,6.57,2.31,9.7c2.78,6.19,6.8,12.34,12.84,14.36c3,1.08,6.4,1.36,9.92,1.35c1.22-0.01,2.44-0.05,3.68-0.11
							c2.35-0.1,4.73-0.27,7.14-0.42c3.65-0.24,7.36-0.44,11.08-0.5c0.98-0.02,1.96-0.03,2.94-0.01c2.78,0.04,5.55,0.21,8.29,0.46
							c7.41,0.7,14.68,1.93,21.89,3.04c7.21,1.08,14.44,2.25,21.5,2.12c1.75-0.04,3.48-0.19,5.12-0.55
							c1.63-0.34,3.18-0.89,4.43-1.74c0.63-0.42,1.13-0.9,1.65-1.58c0.51-0.64,1.05-1.26,1.46-2.04c0.95-1.42,1.7-3.03,2.47-4.62
							c2.84-6.55,4.82-13.6,6.44-20.68c0.83-3.56,1.53-7.14,2.19-10.72c0.63-3.57,1.28-7.23,1.53-10.77l0.02-0.05v-0.01
							c0.02-0.34,0.33-0.61,0.67-0.59c0.34,0.03,0.6,0.32,0.58,0.65c-0.01,0.31-0.01,0.61-0.03,0.91c-0.03,0.86-0.08,1.7-0.15,2.55
							c0.67-0.36,1.33-0.72,2-1.08c6.82-3.66,13.68-7.26,20.35-11.06c1.35-0.77,2.7-1.55,4.01-2.34c0.56-0.34,1.1-0.68,1.64-1.03
							c0.91-0.58,1.79-1.19,2.54-1.8c0.18-0.15,0.37-0.31,0.5-0.43c0.18-0.17,0.2-0.24,0.27-0.3c0-0.01,0.14-0.38,0.19-0.74
							C355.73,245.1,355.64,242.87,355.46,240.77z M349.54,235.85c-0.31,0.05-0.62-0.16-0.69-0.46l-0.02-0.03
							c-0.68-2.41-1.5-4.86-2.69-6.98c-0.6-1.05-1.28-2.06-2.09-2.64c-0.41-0.29-0.8-0.43-1.17-0.43c-0.38-0.02-0.74,0.11-1.26,0.38
							c-1.9,1.06-3.53,3.01-4.75,5.06c-0.6,1.05-1.15,2.14-1.54,3.24c-0.19,0.55-0.34,1.11-0.4,1.61c-0.03,0.22-0.04,0.45-0.03,0.6
							c0.02,0,0.03,0.01,0.04,0.01l0.36,0.16c0.26,0.09,0.56,0.19,0.85,0.29c0.61,0.19,1.23,0.38,1.88,0.62
							c1.27,0.46,2.59,1,3.79,1.94c1.24,0.89,2.26,2.44,2.42,4.09c0.19,1.63-0.23,3.11-0.87,4.43c-1.33,2.61-3.53,4.52-6.07,5.71
							c-1.28,0.54-2.7,0.95-4.24,0.76c-0.76-0.1-1.55-0.41-2.17-0.97c-0.61-0.56-0.95-1.32-1.09-2.04
							c-0.08-0.34,0.15-0.69,0.49-0.75c0.32-0.06,0.64,0.13,0.74,0.43c0.33,1.08,1.16,1.63,2.2,1.68c1.05,0.05,2.19-0.36,3.21-0.9
							c2.07-1.1,3.87-2.87,4.76-4.93c0.43-1.02,0.65-2.15,0.51-3.09c-0.14-0.92-0.64-1.7-1.5-2.32c-0.85-0.62-1.93-1.11-3.08-1.5
							c-0.58-0.2-1.19-0.38-1.81-0.58c-0.32-0.11-0.63-0.19-0.98-0.33l-0.53-0.21c-0.23-0.12-0.38-0.19-0.66-0.37
							c-0.77-0.6-0.89-1.33-0.95-1.8c-0.05-0.51-0.01-0.9,0.04-1.31c0.11-0.77,0.31-1.46,0.56-2.13c0.48-1.32,1.09-2.54,1.81-3.71
							s1.55-2.26,2.52-3.27c0.96-1.01,2.08-1.92,3.44-2.57c0.62-0.29,1.53-0.61,2.45-0.53c0.91,0.07,1.75,0.48,2.36,0.99
							c1.23,1.01,1.92,2.26,2.53,3.48c0.26,0.58,0.49,1.16,0.7,1.75c0.7,1.93,1.16,3.89,1.47,5.89c0.02,0.16-0.01,0.31-0.09,0.44
							C349.89,235.71,349.74,235.82,349.54,235.85z"/>
						<g>
							<path class="st5" d="M322.86,262.12h0.01v0.01l-0.02,0.05c-0.25,3.54-0.9,7.2-1.53,10.77c-0.66,3.58-1.36,7.16-2.19,10.72
								c-1.62,7.08-3.6,14.13-6.44,20.68c-0.77,1.59-1.52,3.2-2.47,4.62c-0.41,0.78-0.95,1.4-1.46,2.04
								c-0.52,0.68-1.02,1.16-1.65,1.58c-1.25,0.85-2.8,1.4-4.43,1.74c-1.64,0.36-3.37,0.51-5.12,0.55
								c-7.06,0.13-14.29-1.04-21.5-2.12c-7.21-1.11-14.48-2.34-21.89-3.04c-2.74-0.25-5.51-0.42-8.29-0.46
								C312.18,297.23,322.86,262.12,322.86,262.12z"/>
							<path class="st5" d="M226.56,220.87c0,0,1.28,7.28,8.78,6.96c7.5-0.32,8.72-1.47,12.86-1.34c4.15,0.13,4.52,2.49,2.65,4.66
								C248.98,233.31,232.37,238.29,226.56,220.87z"/>
							<path class="st5" d="M333.2,235.42c0,0,5.11-11.16,8.94-11.02c3.82,0.14,3.53,0.85,5.28,4.98c1.74,4.13,2.68,7.62,1.83,12.17
								c-0.85,4.55-6.2,9.39-9.66,9.83c3.32-4.13,3.74-5.83,2.47-8.98C340.78,239.25,332.35,238.48,333.2,235.42z"/>
							<path class="st6" d="M209.27,295.09c0.45-2.45,2.31-3.83,4.11-4.81c1.85-0.97,3.86-1.45,5.85-1.75
								c3.99-0.55,8-0.51,11.98,0.14c3.96,0.68,7.87,1.98,11.3,4.28c1.69,1.17,3.33,2.58,4.35,4.64c0.48,1.02,0.8,2.29,0.48,3.56
								c-0.27,1.25-1.14,2.32-2.17,2.96c-1.99,1.17-3.99,1.52-5.98,1.87c-2,0.3-3.99,0.44-5.98,0.49c-3.98,0.06-7.97-0.17-11.92-1.2
								c-0.99-0.27-1.97-0.6-2.95-1.14c-0.49-0.26-0.97-0.62-1.41-1.1c-0.43-0.52-0.76-1.31-0.63-2.1c0.19-0.75,0.47-1.23,0.82-1.69
								c0.34-0.47,0.75-0.86,1.18-1.21c0.88-0.68,1.86-1.15,2.86-1.48c2-0.64,4.07-0.8,6.11-0.64c1.02,0.09,2.04,0.26,3.05,0.63
								c0.5,0.18,1.01,0.42,1.49,0.82c0.24,0.21,0.48,0.47,0.62,0.84c0.17,0.37,0.12,0.82,0.01,1.17c-0.1,0.33-0.46,0.51-0.79,0.41
								c-0.3-0.1-0.48-0.4-0.43-0.71l0.02-0.13c0.04-0.2,0.01-0.32-0.28-0.57c-0.28-0.22-0.68-0.4-1.1-0.53
								c-0.84-0.27-1.77-0.4-2.7-0.45c-1.86-0.08-3.76,0.14-5.46,0.76c-0.85,0.32-1.64,0.73-2.3,1.26c-0.32,0.27-0.62,0.57-0.84,0.9
								c-0.26,0.32-0.41,0.73-0.47,0.92c-0.01,0.2,0.05,0.37,0.23,0.61c0.24,0.23,0.54,0.47,0.92,0.66c0.75,0.4,1.63,0.69,2.54,0.91
								c1.81,0.46,3.72,0.69,5.62,0.84c1.91,0.16,3.83,0.2,5.75,0.15c1.92-0.06,3.83-0.21,5.7-0.5c1.84-0.31,3.76-0.74,5.15-1.59
								c0.34-0.23,0.57-0.4,0.78-0.71c0.22-0.29,0.36-0.6,0.43-0.93c0.16-0.65,0.02-1.4-0.32-2.14c-0.7-1.48-2.09-2.78-3.59-3.82
								c-3.06-2.1-6.73-3.35-10.45-4.05c-3.72-0.7-7.63-0.83-11.4-0.39c-1.87,0.22-3.75,0.59-5.41,1.38
								c-0.83,0.39-1.59,0.88-2.24,1.48c-0.63,0.58-1.14,1.41-1.28,2.08l-0.03,0.14c-0.07,0.34-0.41,0.56-0.75,0.49
								C209.43,295.75,209.21,295.43,209.27,295.09z"/>
						</g>
						<g>
							<path class="st7" d="M250.37,198.08c0,0-13.47-9.52-30.06-2.84c0,0,5.68,12.25,17.55,11.15
								C249.73,205.29,250.37,198.08,250.37,198.08z"/>
							<path class="st7" d="M272.9,198.21c0,0,0.96,8.94,10.47,13.02c9.51,4.09,18.7-0.55,21.19-5.61
								C304.56,205.62,293.46,194.89,272.9,198.21z"/>
						</g>
						<g>
							
								<ellipse transform="matrix(0.7071 -0.7071 0.7071 0.7071 -86.9391 281.8129)" class="st6" cx="296.71" cy="245.85" rx="20.92" ry="20.92"/>
							<g>
								<path class="st5" d="M272.39,198.59c0,0,3.64-14.96,8.41-18.45c4.77-3.49,21.59-1.02,24.08,25.15
									C304.88,205.29,287.2,193.72,272.39,198.59z"/>
								<path class="st5" d="M249.04,197.15c0,0-4.79-14.2-9.64-18.79c-2.9-2.71-14.32,0.6-18.41,16.17
									C220.99,194.53,235.44,187.08,249.04,197.15z"/>
							</g>
							<path class="st6" d="M230.84,233.38c0,9.75-7.91,17.66-17.66,17.66c-0.74,0-1.47-0.05-2.18-0.14
								c0.84-1.23,1.65-2.48,2.46-3.72c1.99-3.37,3.76-6.86,4.89-10.49c2.04-6.06,3.24-12.25,3.89-18.48
								c1.37,0.81,2.63,1.82,3.72,2.97c-0.08,0.39-0.1,0.8-0.1,1.22c0,3.43,1.92,6.41,4.72,7.95
								C230.75,231.34,230.84,232.36,230.84,233.38z"/>
						</g>
					</g>
					<g class="st8">
						<g>
							<path class="st7" d="M252.68,140.52l-0.47,0.97c-7.49,7.06-14.18,14.97-19.88,23.54c-1.62,2.43-3.17,4.93-4.13,7.68
								c-2.43,6.88-0.99,14.41-0.36,21.68c1.1,12.77-0.36,26.34-3.11,38.85c-2.76,12.57-8.96,22.65-14.7,33.95
								c-1.87,3.67-3.75,7.4-4.49,11.45c-1.29,7.05,1.04,14.32,4.59,20.54c1.05,1.84,2.23,3.64,3.77,5.11
								c2.33,2.23,5.36,3.55,8.33,4.83c0.83,0.36,1.66,0.72,2.49,1.07c-1.24,0.06-2.46,0.1-3.68,0.11
								c-3.52,0.01-6.92-0.27-9.92-1.35c-6.04-2.02-10.06-8.17-12.84-14.36c-1.28-3.13-2.26-6.39-2.31-9.7
								c-0.12-3.31,0.38-6.63,1.4-9.88c2.12-6.5,5.99-12.6,9.99-18.66c1.21-1.8,2.43-3.62,3.63-5.44c0.84-1.24,1.66-2.48,2.47-3.72
								c1.99-3.37,3.76-6.86,4.89-10.49c2.04-6.06,3.23-12.26,3.88-18.48c0.14-1.22,0.24-2.42,0.33-3.64
								c0.54-7.44,0.52-14.89-0.12-22.3c-0.31-3.72-0.8-7.4-1.68-11.15c-0.36-1.24-0.06-2.79,0.42-4.41c0.49-1.6,1.24-3.2,2.03-4.77
								c3.28-6.31,7.58-12.27,11.99-18.05c2.22-2.88,4.52-5.72,6.85-8.52c2.21-2.66,4.45-5.32,6.73-7.89
								C250.06,138.53,251.36,139.54,252.68,140.52z"/>
						</g>
						<path class="st7" d="M355.44,246.86c-0.05,0.36-0.19,0.73-0.19,0.74c-0.07,0.06-0.09,0.13-0.27,0.3
							c-0.13,0.12-0.32,0.28-0.5,0.43c-0.75,0.61-1.63,1.22-2.54,1.8c-0.54,0.35-1.08,0.69-1.64,1.03c1.02-5.12,0.64-10.4-0.31-15.6
							c-0.38-2.12-0.86-4.24-1.38-6.33c-0.08-0.33-0.17-0.67-0.25-1.01c-0.57-2.26-1.29-4.7-3.2-6.04
							c-1.85-1.31-4.34-1.21-6.59-0.86c-1.08,0.16-2.15,0.37-3.22,0.62c1.53-1.54,3.11-3.02,4.76-4.29
							c1.64-1.25,3.43-2.36,4.96-2.68c0.77-0.15,1.31-0.08,1.76,0.18c0.48,0.26,1.11,0.81,1.65,1.53c1.11,1.44,2.02,3.34,2.78,5.29
							c1.55,3.9,2.6,8.15,3.35,12.4c0.36,2.14,0.69,4.27,0.85,6.4C355.64,242.87,355.73,245.1,355.44,246.86z"/>
						<path class="st7" d="M255.71,206.39c-0.14,2.75-0.89,5.6-2.75,7.6c-1.55,1.67-3.69,2.59-5.77,3.46
							c-2.26,0.95-4.54,1.9-6.95,2.33c-1.5,0.26-3.03,0.32-4.5,0.7s-2.93,1.16-3.7,2.5c-0.93,1.6-0.69,3.62-0.52,5.47
							c0.03,0.3,0.05,0.63-0.12,0.87c-0.14,0.2-0.38,0.3-0.61,0.36c-1.73,0.41-3.25-1.2-4.27-2.69c-0.82-1.19-1.61-2.43-1.99-3.83
							c-0.38-1.4-0.3-3,0.53-4.18c0.71-1.02,1.85-1.6,2.96-2.12c1.51-0.71,3.06-1.37,4.67-1.78c3.26-0.84,6.72-0.65,9.97-1.53
							c2.09-0.57,4.04-1.57,5.93-2.63c1.43-0.8,2.88-1.67,3.93-2.95c0.77-0.93,0.99-3.38,2.01-3.94
							C255.8,203.33,255.76,205.44,255.71,206.39z"/>
					</g>
				</g>
				<g>
					<path class="st4" d="M131.08,228.26c-1.32,0.23-2.63,0.49-3.93,0.87c-1.89,0.57-3.79,1.2-5.55,2.22
						c-0.88,0.5-1.73,1.09-2.5,1.77c-1.8-5.91-4.36-11.56-7.76-16.77c-0.47-0.72-0.96-1.44-1.46-2.15c-1.13-1.51-2.3-2.99-3.64-4.35
						l-1.91-1.95c-0.56-0.64-1.07-1.31-1.47-2.02c-0.78-1.42-1.07-3.03-0.5-4.36c0.19-0.47,0.47-0.9,0.84-1.27
						c0.66-0.7,1.57-1.22,2.57-1.5c3.14-0.85,6.71,0.33,9.25,2.64c2.64,2.29,4.79,5.27,6.74,8.32c1.54,2.48,2.97,5.04,4.31,7.65
						c1.44,2.78,2.76,5.62,4,8.49C130.41,226.65,130.75,227.46,131.08,228.26z"/>
					<path class="st4" d="M181.06,252.72c0.18,1.11,0.21,2.27,0.18,3.44c-0.11,2.38-0.47,4.78-1.1,7.08
						c-1.25,4.59-3.63,8.88-7.09,12.1c-1.72,1.6-3.66,2.97-5.76,4.1c-0.55,0.29-1.12,0.56-1.7,0.81c-1.62,0.69-3.31,1.24-4.94,1.72
						c-4.84,0.95-9.83,1.8-14.78,2.37c-2.47,0.29-4.95,0.47-7.43,0.58c-1.42,0.04-2.85,0.04-4.26-0.07c1.99-1.51,3.69-3.41,4.94-5.6
						c0.94-1.67,1.6-3.47,1.96-5.34c0.4-1.86,0.36-3.78,0.17-5.63c-0.11-1.25-0.41-2.44-0.78-3.62c-0.18-0.58-0.38-1.16-0.58-1.74
						c-0.69-1.69-1.52-3.3-2.48-4.81c-1.93-3.03-4.26-5.69-6.87-8.03c-0.21-0.19-0.54-0.22-0.8-0.04c-0.27,0.21-0.34,0.61-0.13,0.89
						l0.01,0.01c2.02,2.76,3.93,5.55,5.43,8.51c0.64,1.17,1.15,2.4,1.61,3.62c0.12,0.3,0.23,0.6,0.34,0.9c0.45,1.54,0.87,3.1,1,4.68
						c0.33,3.12-0.24,6.27-1.77,8.96c-1.49,2.7-3.89,4.94-6.7,6.29c-1.53,0.74-3.27,1.24-4.85,1.26c-1.25,0.01-2.4-0.28-3.25-1.01
						c-1.09-0.84-1.97-2.13-2.69-3.53c-0.74-1.41-1.3-2.97-1.82-4.56c-1.98-6.39-2.98-13.26-4.74-20.01
						c-0.43-1.69-0.91-3.38-1.48-5.06c-0.29-0.85-0.6-1.67-0.95-2.51c-0.37-0.85-0.78-1.68-1.24-2.48c-1.85-3.16-4.26-5.8-6.74-8.27
						c-2.49-2.47-5.12-4.73-7.64-7.03c-0.03-0.02-0.05-0.05-0.08-0.06c-1.23-1.13-2.45-2.27-3.57-3.47
						c-1.12-1.19-2.18-2.5-2.66-3.78c-0.23-0.65-0.27-1.21-0.07-1.7c0.1-0.26,0.24-0.51,0.5-0.8l0.01-0.01
						c0.23-0.29,0.44-0.58,0.71-0.78c1.03-0.95,2.43-1.36,3.96-1.22c0.97,0.08,1.96,0.32,2.92,0.66c0.56,0.19,1.11,0.41,1.65,0.66
						c1.5,0.69,2.95,1.53,4.36,2.47c2.81,1.87,5.45,4.05,7.97,6.34c2.52,2.29,4.97,4.72,7.27,7.23l0.04,0.06
						c0.17,0.23,0.52,0.27,0.74,0.08l0.18-0.14c1.45-1.14,2.99-2.06,4.61-2.87c1.63-0.83,3.37-1.47,5.13-2.04
						c1.78-0.58,3.61-1.02,5.45-1.41c1.34-0.28,2.7-0.55,4.06-0.76c0.51-0.09,1.02-0.16,1.53-0.23h0.01
						c0.3-0.06,0.55-0.31,0.56-0.63c0-0.34-0.27-0.63-0.62-0.64c-1.5-0.06-2.98,0.03-4.45,0.17c-0.53-6.84-1.67-13.6-3.21-20.29
						c-0.8-3.5-1.65-6.98-2.86-10.44c-0.14-0.43-0.32-0.89-0.44-1.28l-0.33-1.13c-0.16-0.38-0.09-0.76-0.16-1.13
						c-0.01-0.19-0.05-0.38-0.05-0.57l0.08-0.55c0.14-1.24,0.73-2.37,1.66-3.12c0.17-0.16,0.36-0.29,0.55-0.41
						c1.23-0.77,2.81-0.96,4.3-0.66c1.54,0.27,2.91,1.21,4.11,2.29c2.37,2.26,3.67,5.55,4.87,8.85c2.3,6.48,3.66,13.4,3.74,20.27
						c-0.31,0.22-0.6,0.44-0.91,0.66c-0.24,0.19-0.33,0.54-0.16,0.82c0.18,0.31,0.56,0.41,0.86,0.24l0.01-0.01
						c4.37-2.46,8.59-5.47,13.27-5.88c1.17-0.15,2.38-0.13,3.59-0.09c0.6,0.04,1.21,0.08,1.82,0.14l0.92,0.1l0.81,0.17
						c2.17,0.46,4.23,1.64,5.99,3.2c3.55,3.15,6.25,7.43,8.02,11.87c0.3,0.78,0.55,1.6,0.75,2.43c0.36,1.47,0.56,2.99,0.61,4.48
						c0.07,2.3-0.45,4.6-1.9,5.56c-0.17,0.13-0.39,0.22-0.58,0.33c-0.2,0.09-0.43,0.14-0.66,0.23c-0.23,0.05-0.48,0.08-0.72,0.13
						c-0.26,0.03-0.44-0.02-0.65,0.01c-0.78-0.06-1.42-0.48-2.06-1.31c-1.26-1.69-2.13-4.14-3.25-6.45
						c-1.1-2.34-2.48-4.76-4.57-6.72c-1.14-0.97-2.49-1.8-4-2.13c-1.49-0.34-3.06-0.37-4.51,0.04c-1.47,0.33-2.77,1.08-3.97,1.89
						c-0.54,0.48-1.13,0.93-1.6,1.45c-0.46,0.56-0.99,1.05-1.35,1.66c-1.61,2.32-2.6,4.98-3.03,7.65c-0.41,2.67-0.55,5.37-0.22,8.01
						c0.28,2.63,0.82,5.29,1.94,7.81c1.08,2.5,2.66,4.87,4.83,6.73c2.13,1.85,4.96,3.1,8.01,3.12c1.52-0.05,3.09-0.41,4.48-1.23
						c1.46-0.92,2.43-2.29,3.04-3.59c1.2-2.67,1.53-5.27,2.04-7.71c0.24-1.21,0.5-2.39,0.85-3.41c0.37-1.02,0.89-1.71,1.3-1.84
						c0.06-0.01,0.12-0.02,0.19-0.05c0.09-0.01,0.24-0.02,0.35-0.04c0.25-0.03,0.49-0.06,0.73-0.05c0.23-0.01,0.45,0.02,0.67,0.07
						c0.23,0.01,0.42,0.09,0.62,0.15c0.8,0.25,1.44,0.82,1.93,1.65C180.59,250.58,180.89,251.62,181.06,252.72z"/>
					<g>
						<g>
							<path class="st5" d="M137.5,274.58c-0.3,1.06-0.73,2.07-1.27,3.03c-1.49,2.7-3.89,4.94-6.7,6.29
								c-2.74,1.32-6.17,1.9-8.1,0.25c-1.09-0.84-1.97-2.13-2.69-3.53c-0.74-1.41-1.3-2.97-1.82-4.56
								c-1.98-6.39-2.98-13.26-4.74-20.01c-0.43-1.69-0.91-3.38-1.48-5.06c-0.29-0.85-0.6-1.67-0.95-2.51
								c-0.37-0.85-0.78-1.68-1.24-2.48c-1.85-3.16-4.26-5.8-6.74-8.27c-1.07-1.06-2.16-2.08-3.26-3.08
								c4.24,2.54,9.59,5.38,13.38,6.09c7.23,1.36,7.49,11.15,13.53,21.44C129.89,269.8,134.78,273.79,137.5,274.58z"/>
						</g>
						<path class="st5" d="M131.08,228.26c-1.32,0.23-2.63,0.49-3.93,0.87c-1.89,0.57-3.79,1.2-5.55,2.22
							c-0.88,0.5-1.73,1.09-2.5,1.77c-1.8-5.91-4.36-11.56-7.76-16.77c4.49,4.06,11.17,8.74,18.73,9.5
							C130.41,226.65,130.75,227.46,131.08,228.26z"/>
						<g class="st8">
							<path class="st7" d="M137.31,229.16c-5.54,3.32-11.07,6.63-16.6,9.95c-0.84,0.5-1.7,1.01-2.66,1.15
								c-1.53,0.22-3.02-0.52-4.32-1.35c-3.61-2.3-6.64-5.36-9.89-8.13c-3.43-2.93-7.13-5.55-11.04-7.82
								c-1.44-0.84-2.94-1.64-4.54-2.08c0.23-0.29,0.44-0.58,0.71-0.78c1.03-0.95,2.43-1.36,3.96-1.22
								c0.97,0.08,1.96,0.32,2.92,0.66c0.56,0.19,1.11,0.41,1.65,0.66c1.5,0.69,2.95,1.53,4.36,2.47c2.81,1.87,5.45,4.05,7.97,6.34
								c2.52,2.29,4.97,4.72,7.27,7.23l0.04,0.06c0.17,0.23,0.52,0.27,0.74,0.08l0.18-0.14c1.45-1.14,2.99-2.06,4.61-2.87
								c1.63-0.83,3.37-1.47,5.13-2.04c1.78-0.58,3.61-1.02,5.45-1.41C134.59,229.64,135.95,229.37,137.31,229.16z"/>
							<path class="st7" d="M126.07,217.36c-0.01,0.13-0.03,0.25-0.05,0.38c-3.65-4.01-7.34-8.07-11.74-11.24
								c-2.36-1.7-4.9-3.13-7.44-4.53c-1.18-0.64-2.37-1.29-3.64-1.72c0.66-0.7,1.57-1.22,2.57-1.5c3.14-0.85,6.71,0.33,9.25,2.64
								c2.64,2.29,4.79,5.27,6.74,8.32C123.3,212.19,124.73,214.75,126.07,217.36z"/>
							<path class="st7" d="M181.57,233.31c-2.43-2.04-4.48-4.78-6.91-6.91c-4.64-4.06-10.88-5.9-17.03-6.4
								c-3.44-0.28-7.15-0.11-9.94,1.92c-0.78,0.57-1.83,1.29-2.59,0.69c-0.34-0.26-0.47-0.7-0.57-1.11
								c-1.62-6.22-2.76-12.58-5.16-18.54c-2.17-5.37-5.52-10.49-10.34-13.64c0.17-0.16,0.36-0.29,0.55-0.41
								c1.23-0.77,2.81-0.96,4.3-0.66c1.54,0.27,2.91,1.21,4.11,2.29c2.37,2.26,3.67,5.55,4.87,8.85c2.3,6.48,3.66,13.4,3.74,20.27
								c-0.31,0.22-0.6,0.44-0.91,0.66c-0.24,0.19-0.33,0.54-0.16,0.82c0.18,0.31,0.56,0.41,0.86,0.24l0.01-0.01
								c4.37-2.46,8.59-5.47,13.27-5.88c1.17-0.15,2.38-0.13,3.59-0.09c0.6,0.04,1.21,0.08,1.82,0.14l0.92,0.1l0.81,0.17
								c2.17,0.46,4.23,1.64,5.99,3.2c3.55,3.15,6.25,7.43,8.02,11.87C181.12,231.66,181.37,232.48,181.57,233.31z"/>
						</g>
						<path class="st5" d="M165.59,280.25c-1.62,0.69-3.31,1.24-4.94,1.72c-4.84,0.95-9.83,1.8-14.78,2.37
							c-2.47,0.29-4.95,0.47-7.43,0.58c-1.42,0.04-2.85,0.04-4.26-0.07c1.99-1.51,3.69-3.41,4.94-5.6c0.94-1.67,1.6-3.47,1.96-5.34
							c0.4-1.86,0.36-3.78,0.17-5.63c-0.11-1.25-0.41-2.44-0.78-3.62C145.08,269.21,154.61,277.44,165.59,280.25z"/>
					</g>
				</g>
				<g>
					<path class="st7" d="M411.89,134.54c-0.13,3.72-1.25,7.39-3.61,10.16c-2.31,2.82-5.69,4.66-9.31,5.59
						c-3.64,0.88-7.54,0.99-11.3,0.25c-1.88-0.37-3.75-0.86-5.55-1.57c-1.73-0.69-3.39-1.54-5-2.51c-0.37-3.08-1.58-5.83-3.01-8.44
						c-1.44-2.67-2.97-5.28-4.62-7.84c-3.27-5.11-7.03-9.91-11.22-14.33c-2.12-2.19-4.35-4.26-6.71-6.19
						c-1.64-1.32-3.34-2.57-5.1-3.72c-0.79-0.53-1.59-1.04-2.4-1.53c-2.62-1.55-5.42-2.82-8.26-3.9c-2.87-1.06-5.84-1.78-8.84-2.25
						c-0.33-0.04-0.63,0.17-0.72,0.48c-0.08,0.35,0.12,0.69,0.47,0.77c0,0,0.01,0,0.02,0.01c2.87,0.68,5.68,1.56,8.38,2.72
						c2.68,1.18,5.26,2.57,7.74,4.15c2.45,1.61,4.8,3.36,7,5.29c2.21,1.93,4.3,4,6.28,6.17c3.96,4.35,7.48,9.1,10.65,14.06
						c1.58,2.5,3.06,5.04,4.45,7.65c1.29,2.48,2.66,4.92,4.47,7.2c-1.43,1.09-2.81,2.23-4.16,3.4c-1.2,1.05-2.37,2.13-3.54,3.21
						c-0.27,0.24-0.55,0.48-0.81,0.73c-1.44,1.33-2.82,2.71-4.23,4.07c-0.89,0.9-1.71,1.87-2.44,2.93
						c-3.88-0.58-7.74-1.32-11.59-2.21l-3.46-0.82l-1.72-0.44l-1.65-0.51c-1.1-0.36-2.2-0.66-3.28-1.04l-3.19-1.31
						c-1.23-0.56-2.43-1.15-3.62-1.8c-2.86-1.53-5.6-3.3-8.21-5.26c-3.7-2.82-7.1-6.05-10.43-9.42c-3.32-3.38-6.52-6.98-10.19-10.39
						c-0.89-0.88-1.92-1.66-2.89-2.5c-0.5-0.4-1.06-0.76-1.58-1.16c-0.55-0.37-1.06-0.77-1.69-1.08l-1.79-0.98
						c-0.64-0.29-1.34-0.58-2.02-0.77c-1.4-0.44-2.82-0.6-4.22-0.67c-1.39-0.05-2.77,0.06-4.1,0.28c-1.31,0.26-2.6,0.58-3.83,1.01
						c-0.65,0.22-1.29,0.46-1.91,0.71l11.9-21l7.31-12.91c0.05-0.09,0.09-0.18,0.13-0.28c0.39-1.04-0.13-2.2-1.17-2.59l-0.19-0.07
						c-2.66-0.83-5.45-2.09-7.9-3.6c-2.47-1.53-4.75-3.38-6.41-5.63c-1.66-2.23-2.72-4.86-2.77-7.64c-0.09-2.76,0.66-5.65,1.95-8.23
						c1.25-2.57,3.13-4.81,5.66-6.06c2.5-1.28,5.47-1.59,8.38-1.24c2.93,0.35,5.82,1.32,8.5,2.65c1.34,0.66,2.64,1.44,3.86,2.31
						c1.2,0.87,2.36,1.87,3.16,3.01l0.01,0.03c0.08,0.1,0.16,0.18,0.28,0.23c0.33,0.12,0.7-0.03,0.82-0.35v-0.01
						c5.26-9.43,13.77-17.45,23.98-19.8c2.53-0.61,5.13-0.82,7.73-0.76c2.61,0.04,5.21,0.4,7.76,1.04c2.25,0.54,4.48,1.24,6.65,2.1
						c2.78,1.09,5.48,2.41,8.11,3.91c4.64,2.64,9.06,5.71,12.78,9.49c3.77,3.7,6.89,8.06,8.98,12.88c2.1,4.82,3.2,10.11,2.92,15.39
						c-0.11,2.63-0.57,5.27-1.5,7.74c-0.43,1.24-1.03,2.42-1.74,3.5c-0.71,1.09-1.57,2.08-2.63,2.78h-0.01
						c-0.16,0.1-0.28,0.28-0.3,0.49c-0.04,0.35,0.23,0.67,0.57,0.69l0.02,0.02c1.86,0.19,3.78,0.71,5.57,1.41
						c1.8,0.68,3.53,1.56,5.11,2.64c3.2,2.14,5.96,4.89,8.13,8.06c0.52,0.83,1.13,1.56,1.55,2.44l1.36,2.55
						c0.42,0.88,0.75,1.78,1.13,2.67l0.56,1.34l0.44,1.39C411.16,127,411.96,130.78,411.89,134.54z"/>
					<g>
						<path class="st9" d="M375.7,146.76c-1.43,1.09-2.81,2.23-4.16,3.4c-1.2,1.05-2.37,2.13-3.54,3.21
							c-0.27,0.24-0.55,0.48-0.81,0.73c-1.44,1.33-2.82,2.71-4.23,4.07c-0.89,0.9-1.71,1.87-2.44,2.93
							c-1.88-0.28-3.75-0.6-5.63-0.96c-1.99-0.37-3.98-0.79-5.96-1.25l-3.46-0.82l-1.72-0.44l-1.65-0.51
							c-1.1-0.36-2.2-0.66-3.28-1.04l-3.19-1.31c-1.23-0.56-2.43-1.15-3.62-1.8c3.01-2.38,14.49-12.35,14.89-26.1
							c0.46-15.54-19.43-26.93-20.17-27.35c2.87,0.68,5.68,1.56,8.38,2.72c2.68,1.18,5.26,2.57,7.74,4.15
							c2.29,1.51,4.5,3.14,6.58,4.93c0.14,0.12,0.28,0.24,0.42,0.36c2.21,1.93,4.3,4,6.28,6.17c3.96,4.35,7.48,9.1,10.65,14.06
							c1.58,2.5,3.06,5.04,4.45,7.65C372.52,142.04,373.89,144.48,375.7,146.76z"/>
						<path class="st9" d="M411.89,134.54c-0.13,3.72-1.25,7.39-3.61,10.16c-0.67,0.82-1.43,1.55-2.26,2.2
							c-2.03,1.61-4.48,2.73-7.05,3.39c-3.64,0.88-7.54,0.99-11.3,0.25c-1.88-0.37-3.75-0.86-5.55-1.57c-1.73-0.69-3.39-1.54-5-2.51
							c-0.37-3.08-1.58-5.83-3.01-8.44c-1.44-2.67-2.97-5.28-4.62-7.84c-3.27-5.11-7.03-9.91-11.22-14.33
							c-1.48-1.53-3.02-3.01-4.62-4.41c-0.68-0.61-1.38-1.2-2.09-1.78c-1.64-1.32-3.34-2.57-5.1-3.72
							c18.78-0.56,34.02-12.74,30.68-31.84c-2.38-13.57-12.21-24.5-18.35-30.16c2.78,1.09,5.48,2.41,8.11,3.91
							c4.64,2.64,9.06,5.71,12.78,9.49c3.77,3.7,6.89,8.06,8.98,12.88c2.1,4.82,3.2,10.11,2.92,15.39c-0.11,2.63-0.57,5.27-1.5,7.74
							c-0.43,1.24-1.03,2.42-1.74,3.5c-0.71,1.09-1.57,2.08-2.63,2.78h-0.01c-0.16,0.1-0.28,0.28-0.3,0.49
							c-0.04,0.35,0.23,0.67,0.57,0.69l0.02,0.02c1.86,0.19,3.78,0.71,5.57,1.41c1.8,0.68,3.53,1.56,5.11,2.64
							c3.2,2.14,5.96,4.89,8.13,8.06c0.52,0.83,1.13,1.56,1.55,2.44l1.36,2.55c0.42,0.88,0.75,1.78,1.13,2.67l0.56,1.34l0.44,1.39
							C411.16,127,411.96,130.78,411.89,134.54z"/>
						<g>
							<path class="st7" d="M388.74,100.4c-3.87-1.39-11.35,2.31-9.17,10.62c2.18,8.31,15.05,18.08,22.3,15.44
								C409.13,123.83,412.43,108.92,388.74,100.4z"/>
							<path class="st10" d="M371.23,139.56c1.29,2.48,2.66,4.92,4.47,7.2c-1.43,1.09-2.81,2.23-4.16,3.4
								c-1.2,1.05-2.37,2.13-3.54,3.21c-0.27,0.24-0.55,0.48-0.81,0.73c-1.44,1.33-2.82,2.71-4.23,4.07
								c-0.89,0.9-1.71,1.87-2.44,2.93c-1.88-0.28-3.75-0.6-5.63-0.96c3.36-6.36,6.71-16.3,3.68-27.61
								c-3.51-13.09-7.13-18.84-9.14-21.21c0.14,0.12,0.28,0.24,0.42,0.36c2.21,1.93,4.3,4,6.28,6.17
								c3.96,4.35,7.48,9.1,10.65,14.06C368.36,134.41,369.84,136.95,371.23,139.56z"/>
							<path class="st10" d="M406.02,146.9c-2.03,1.61-4.48,2.73-7.05,3.39c-3.64,0.88-7.54,0.99-11.3,0.25
								c-1.88-0.37-3.75-0.86-5.55-1.57c-1.73-0.69-3.39-1.54-5-2.51c-0.37-3.08-1.58-5.83-3.01-8.44
								c-1.44-2.67-2.97-5.28-4.62-7.84c-3.27-5.11-7.03-9.91-11.22-14.33c-1.48-1.53-3.02-3.01-4.62-4.41
								c4.05,0.94,9.48,1.81,13.73,1.04c0,0,0.19,14.68,16.24,26.94C390.7,144.82,398.97,146.6,406.02,146.9z"/>
						</g>
					</g>
				</g>
				<g>
					<g>
						<path class="st7" d="M206.69,312.71c-2.61,1.89-5.03,3.98-7.41,6.13c-1.37,1.29-2.7,2.62-4.05,3.93
							c-1.29,1.37-2.59,2.73-3.85,4.13c-5.03,5.6-9.51,11.68-13.52,18.06c-2.06,3.16-3.87,6.48-5.66,9.8
							c-0.36,0.67-0.69,1.36-1.02,2.05c0.02-3.04-0.13-6.08-0.32-9.1c-0.45-5.75-1.15-11.46-2.06-17.13
							c-0.12-0.71-0.24-1.43-0.36-2.14c0.56-0.93,1.16-1.83,1.81-2.71c1.16-1.6,2.4-3.14,3.71-4.61c2.62-2.88,5.52-5.65,8.62-7.25
							c0.38-0.24,0.77-0.33,1.14-0.5c0.19-0.07,0.38-0.17,0.56-0.22l0.55-0.12l0.54-0.14c0.17,0.01,0.34,0,0.51-0.01l0.5-0.04
							l0.82,0.05c2.2,0.1,4.34,0.01,6.45-0.24c3.33-0.37,6.59-1.04,9.76-2.05c0.09,0.07,0.17,0.13,0.26,0.19
							C204.62,311.51,205.63,312.16,206.69,312.71z"/>
						<path class="st9" d="M151.74,286.36c0.17,0.4,0.27,0.77,0.38,1.18c0.14,0.62,0.22,1.25,0.25,1.87
							c0.03,0.7,0.02,1.39-0.04,2.08c0.98-0.36,1.93-0.78,2.84-1.26c2.44-1.27,4.58-3.06,6.31-5.22c-0.07,0.02-0.14,0.04-0.21,0.06
							C158.09,285.62,154.92,286.04,151.74,286.36z"/>
						<path class="st9" d="M144.22,293.4c2.19-0.28,4.38-0.71,6.48-1.36c-0.1-0.84-0.17-1.68-0.24-2.51l-0.2-3.03
							c-1.39,0.12-2.78,0.23-4.17,0.32c-2.54,0.17-5.1,0.21-7.67,0.08c-2.02-0.11-4.07-0.29-6.09-0.81
							c-0.45,0.27-0.92,0.52-1.39,0.74c-1.69,0.8-3.51,1.36-5.47,1.51c2.12,1.89,4.67,3.27,7.39,4.1
							C136.51,293.54,140.4,293.82,144.22,293.4z"/>
						<path class="st9" d="M240.94,319.79c1.77,0.66,3.57,1.24,5.39,1.74c-0.03-0.16-0.06-0.31-0.08-0.47
							c-0.15-1-0.15-2.01-0.13-3.01c0.05-1.32,0.19-2.64,0.46-3.94c-1.18-0.01-2.35-0.01-3.53,0.03c-3.6,0.11-7.21,0.34-10.85,0.63
							c-0.46,0.03-0.93,0.07-1.39,0.11c0.58,0.35,1.17,0.69,1.76,1.02C235.27,317.39,238.07,318.69,240.94,319.79z"/>
						<path class="st9" d="M248.68,320.93c-0.02,0.39-0.05,0.79-0.08,1.18c3.39,0.8,6.84,1.33,10.31,1.52
							c3.07,0.18,6.15,0.1,9.23-0.12c3.08-0.28,6.16-0.68,9.21-1.28c3.06-0.58,6.07-1.41,9.07-2.3c1.44-0.43,2.88-0.9,4.3-1.41
							c-5.16-0.26-10.22-0.94-15.26-1.57c-7.28-0.95-14.5-1.98-21.69-2.52c-1.76-0.14-3.51-0.24-5.26-0.3
							c0.09,1.31,0.14,2.62,0.17,3.92C248.68,319.03,248.73,319.98,248.68,320.93z"/>
						<path class="st7" d="M168.58,362.3l-0.05,0.11v0.01c-0.38,0.86-0.73,1.74-1.08,2.61c-0.69,1.76-1.39,3.51-2.04,5.28
							c-0.2,0.64-0.4,1.28-0.61,1.92c-0.37,1.15-0.74,2.31-1.08,3.48l-0.79,2.71c-0.23,0.91-0.43,1.83-0.62,2.76
							c-0.35,1.6-0.68,3.2-0.97,4.8c-2.42-2.32-13.25-10.46-23.48-18.98c-8.74-7.26-17.04-14.79-19.32-19.19c0,0,0,0,0-0.01
							c0.01-0.03,0.02-0.07,0.02-0.11l0.01-0.14l0.1-1.76l0.22-1.83c0.12-1.21,0.32-2.45,0.45-3.67c0.14-1.05,0.27-2.09,0.39-3.14
							c0,0-0.01-0.01-0.01-0.02c0.15-1.26,0.31-2.52,0.45-3.78c0.02-0.15,0.03-0.3,0.05-0.45l0.37-3.44l1.23-11.4l1.59-14.87
							c0.28-2.47,0.54-4.95,0.76-7.44l0.56-5.97c1.63,1.62,3.57,2.95,5.67,3.9c0.59,0.28,1.19,0.52,1.8,0.73
							c1.97,0.68,4,1.17,6.07,1.37c2.07,0.17,4.14,0.19,6.2-0.01c2.05-0.23,4.1-0.53,6.07-1.15c1.99-0.54,3.95-1.34,5.76-2.39
							c0.76-0.44,1.47-0.94,2.15-1.48c0.75,6.09,1.63,12.14,2.54,18.18l3.02,19.62c0.47,3.16,0.96,6.32,1.44,9.47
							c0.02,0.1,0.03,0.2,0.05,0.31c0.41,2.74,0.82,5.49,1.21,8.23c0.07,0.52,0.15,1.05,0.22,1.57c0.08,0.55,0.15,1.1,0.23,1.65
							c0.39,2.71,0.74,5.42,1.04,8.12c0.03,0.29,0.06,0.58,0.09,0.87c0.08,0.85,0.15,1.69,0.22,2.54
							C168.53,361.64,168.56,361.97,168.58,362.3z"/>
						<path class="st7" d="M209.34,313.86c-0.34-0.12-0.67-0.26-1-0.39c-4.16,5.75-8.32,11.4-12.36,17.1
							c-2.76,3.89-5.46,7.8-8.1,11.74l0,0c-0.07,0.1-0.14,0.21-0.2,0.31c-1.22,1.82-2.42,3.64-3.61,5.47
							c-0.13,0.19-0.26,0.39-0.38,0.58c-0.69,1.11-1.41,2.19-2.1,3.29c-0.28,0.44-0.57,0.87-0.83,1.32
							c-0.93,1.56-1.89,3.11-2.85,4.66c0,0,0,0,0,0c0,0,0,0,0,0c-0.03,0.06-0.07,0.12-0.1,0.17c-0.53,0.88-1.04,1.77-1.55,2.66
							c-0.36,0.63-0.72,1.26-1.09,1.89l-0.76,1.31l-0.62,1.05l-1.3,2.41c-0.87,1.6-1.74,3.21-2.65,4.8
							c-0.82,1.63-1.61,3.28-2.47,4.91l-1.28,2.45c-0.15,0.33-0.3,0.65-0.46,0.98c-0.23,0.51-0.46,1.02-0.71,1.52
							c-0.79,1.67-1.6,3.34-2.47,5l-0.02,0.04c-0.1,0.19-0.28,0.31-0.48,0.33c0.28,3.23,1.38,13.41,17.09,26.48
							c0.97-7.82,2.4-15.59,4.17-23.28c0.01,0,0.01,0.01,0.02,0.01c0.35-1.5,0.68-2.99,1.05-4.48c1.94-7.8,4.37-15.47,7.21-23
							c0.5-1.31,1-2.62,1.52-3.92c0.49-1.22,1-2.43,1.51-3.63c0.07-0.16,0.14-0.32,0.21-0.48c0.43-1.01,0.88-2.02,1.33-3.03
							c0.13-0.29,0.27-0.58,0.4-0.87c0.4-0.89,0.81-1.77,1.23-2.65c0.15-0.31,0.3-0.63,0.45-0.94c0.42-0.87,0.84-1.74,1.27-2.6
							c1.91-3.82,3.94-7.58,6.14-11.25c2.43-4.07,5.01-8.05,7.82-11.89c1.39-1.93,2.86-3.8,4.38-5.64c0.24-0.28,0.47-0.56,0.71-0.84
							C215.45,315.33,212.36,314.93,209.34,313.86z"/>
						<path class="st7" d="M344.36,373.8c-0.09-1.06-0.2-2.12-0.3-3.18c0,0,0,0,0.01,0c-0.03-0.23-0.05-0.45-0.07-0.68
							c-0.09-0.89-0.18-1.77-0.28-2.66c-0.11-1.02-0.24-2.03-0.37-3.04c-0.05-0.46-0.1-0.91-0.16-1.36h-0.01
							c-0.26-1.92-0.55-3.84-0.9-5.74c-0.16-0.94-0.34-1.88-0.54-2.82c-0.32-1.58-0.7-3.15-1.12-4.69
							c-0.41-1.55-0.86-3.07-1.39-4.55c-1.07-2.94-2.35-5.81-4.1-7.99c-0.44-0.54-0.91-1.04-1.4-1.46
							c-1.26,1.18-2.47,2.45-3.59,3.78c-1.72,1.93-3.27,4.02-4.75,6.15c-2.92,4.3-5.44,8.86-7.64,13.58l-1.62,3.55l-1.44,3.64
							c-1.06,2.39-1.74,4.92-2.67,7.37c-0.58,1.72-1.09,3.46-1.6,5.21c-0.23,0.77-0.46,1.54-0.7,2.31c-0.69,2.53-1.3,5.09-2.03,7.63
							l-0.01,0.03c-0.08,0.28-0.33,0.46-0.6,0.46c-0.06,0-0.12-0.01-0.18-0.03c-0.13-0.03-0.23-0.11-0.31-0.21
							c-0.11-0.13-0.17-0.3-0.15-0.48c0.14-1.04,0.31-2.08,0.47-3.12c0.11-0.68,0.21-1.36,0.32-2.03c0.07-0.4,0.13-0.8,0.2-1.2
							c0.08-0.51,0.17-1.03,0.25-1.54c0.09-0.35,0.17-0.71,0.25-1.06c0.53-2.24,1.02-4.49,1.63-6.72c0.36-1.28,0.75-2.56,1.15-3.84
							c0.04-0.12,0.08-0.24,0.11-0.36c0.13-0.43,0.27-0.86,0.41-1.29c0.17-0.48,0.34-0.96,0.52-1.44c0.09-0.23,0.17-0.47,0.26-0.7
							l1.43-3.76l1.43-3.2l0.21-0.47c2.31-4.84,4.96-9.55,8.24-13.82c2.67-3.43,5.57-6.69,9.04-9.36c-0.03-0.02-0.06-0.04-0.1-0.05
							c-0.25-0.14-0.5-0.25-0.76-0.32l-0.2-0.07l-0.32-0.11l-0.65-0.21c-0.89-0.27-1.71-0.59-2.51-0.93
							c-3.24-1.33-6.19-2.99-9.12-4.65c-5.29-3.17-10.33-6.64-15.06-10.57c-0.05,0.01-0.11,0.03-0.17,0.04
							c-1.94,0.46-3.87,0.67-5.77,0.76c-1.07,0.04-2.13,0.05-3.19,0.05c-5.19,2.88-10.74,4.98-16.49,6.47
							c-6.24,1.65-12.77,2.46-19.3,2.13c-6.53-0.33-12.96-1.76-19.07-4.03c-3.05-1.16-6-2.55-8.85-4.14
							c-2.05-1.16-4.01-2.38-5.93-3.79c-0.53,0.03-1.05,0.05-1.58,0.08c-2.49,2.69-4.86,5.66-7.08,8.65
							c-2.77,3.71-5.34,7.57-7.76,11.54c-1.93,3.15-3.74,6.36-5.47,9.63c-0.05,0.09-0.09,0.18-0.14,0.27
							c-0.54,1.02-1.06,2.04-1.58,3.07c-0.17,0.35-0.35,0.69-0.52,1.04c-0.4,0.82-0.81,1.64-1.2,2.47c-0.2,0.4-0.39,0.8-0.58,1.21
							c-0.37,0.78-0.73,1.56-1.09,2.35c-0.19,0.43-0.39,0.86-0.59,1.3c-0.3,0.68-0.6,1.36-0.9,2.04c-0.21,0.49-0.42,0.97-0.63,1.45
							c-3.62,8.58-6.72,17.4-9.27,26.38c-0.08,0.26-0.14,0.53-0.21,0.79c-0.32,1.13-0.62,2.25-0.92,3.38
							c-2.03,7.6-3.69,15.3-5.05,23.07c12.65,0.81,25.17,0.61,37.14-0.26c0.64-0.05,1.28-0.09,1.93-0.14
							c40.27-3.15,74.03-13.55,84.96-16.92c1.36-0.42,2.37-0.73,2.99-0.9c0.32-0.09,0.54-0.15,0.65-0.16
							c0.98-0.12,6.04-2.9,12.15-6.45c9.49-5.51,21.52-12.83,24.71-14.83C344.57,374.29,344.39,374.06,344.36,373.8z M260.09,341.56
							c2.8,0,5.08,2.27,5.08,5.08s-2.28,5.08-5.08,5.08c-2.81,0-5.08-2.27-5.08-5.08S257.28,341.56,260.09,341.56z M255.01,372.85
							c1.4,0,2.67,0.57,3.59,1.48c0.92,0.92,1.49,2.19,1.49,3.6c0,2.8-2.28,5.08-5.08,5.08c-1.63,0-3.05-0.78-3.98-1.96
							c-0.68-0.87-1.1-1.94-1.1-3.12C249.93,375.12,252.2,372.85,255.01,372.85z M227.75,336.86c2.8,0,5.08,2.27,5.08,5.08
							c0,2.8-2.28,5.08-5.08,5.08c-2.81,0-5.08-2.28-5.08-5.08C222.67,339.13,224.94,336.86,227.75,336.86z M216.4,374.25
							c-2.81,0-5.08-2.27-5.08-5.08c0-1.53,0.69-2.89,1.77-3.82c0.89-0.77,2.04-1.26,3.31-1.26c2.8,0,5.08,2.28,5.08,5.08
							c0,1.86-1.01,3.46-2.49,4.35C218.23,373.97,217.35,374.25,216.4,374.25z"/>
					</g>
					<g>
						<path class="st9" d="M137.86,367c-8.74-7.26-17.04-14.79-19.32-19.19c0,0,0,0,0-0.01c0.01-0.03,0.02-0.07,0.02-0.11l0.01-0.14
							l0.1-1.76l0.22-1.83c0.12-1.21,0.32-2.45,0.45-3.67c0.14-1.05,0.27-2.09,0.39-3.14c0,0-0.01-0.01-0.01-0.02
							c0.15-1.26,0.31-2.52,0.45-3.78c0.02-0.15,0.03-0.3,0.05-0.45l0.37-3.44l1.23-11.4l1.59-14.87c0.28-2.47,0.54-4.95,0.76-7.44
							l0.56-5.97c1.63,1.62,3.57,2.95,5.67,3.9C130.83,300.4,133.39,338.58,137.86,367z"/>
						<path class="st9" d="M344.83,374.35c-3.19,2-15.22,9.32-24.71,14.83c11.56-12.2,19.08-25.86,22.16-32.04
							c0.35,1.9,0.64,3.82,0.9,5.74h0.01c0.06,0.45,0.11,0.9,0.16,1.36c0.13,1.01,0.26,2.02,0.37,3.04c0.1,0.89,0.19,1.77,0.28,2.66
							c0.02,0.23,0.04,0.45,0.07,0.68c-0.01,0-0.01,0-0.01,0c0.1,1.06,0.21,2.12,0.3,3.18
							C344.39,374.06,344.57,374.29,344.83,374.35z"/>
						<path class="st9" d="M317.11,356.31c-0.81,1.84-2.5,5.99-5.9,14.81c-1.57,4.06-1.97,7.86-2.94,11.23
							c-0.63,2.14-1.04,4.53-1.19,6.99c-0.13,2.12-0.06,4.31,0.24,6.45c-0.62,0.17-1.63,0.48-2.99,0.9
							c-10.93,3.37-44.69,13.77-84.96,16.92c-0.65,0.05-1.29,0.09-1.93,0.14c48.23-13.39,87-46.02,97.43-55.39
							C315.9,357.43,316.65,356.74,317.11,356.31z"/>
						<path class="st9" d="M206.69,312.71c-2.61,1.89-5.03,3.98-7.41,6.13c-1.37,1.29-2.7,2.62-4.05,3.93
							c-1.29,1.37-2.59,2.73-3.85,4.13c-5.03,5.6-9.51,11.68-13.52,18.06c-2.06,3.16-3.87,6.48-5.66,9.8
							c-0.36,0.67-0.69,1.36-1.02,2.05c0.02-3.04-0.13-6.08-0.32-9.1c-0.45-5.75-1.15-11.46-2.06-17.13
							c2.27-2.61,14.15-4.41,21.79-9.05c4.41-2.67,9.4-7.15,13.08-10.74C204.62,311.51,205.63,312.16,206.69,312.71z"/>
					</g>
				</g>
				<g>
					<path class="st11" d="M355.64,181.37c-0.1,0.1-0.32,0.63-0.34,1.04c-0.06,0.39,0.15,1.06,0.34,1.31
						c0.44,0.61,0.77,0.74,1.04,0.9c0.5,0.25,0.85,0.34,1.2,0.44c1.35,0.35,2.51,0.51,3.69,0.73c1.16,0.22,2.3,0.44,3.41,0.72
						c2.17,0.55,4.35,1.36,5.55,2.65c0.3,0.31,0.5,0.66,0.67,1.01c0.05,0.19,0.15,0.38,0.15,0.55c0.01,0.09,0.04,0.17,0.04,0.27
						l0.01,0.36c-0.01,0.99-0.17,2.14-0.4,3.26c-0.94,4.55-2.48,9.13-4.04,13.64c-1.57,4.52-3.27,9.01-5.03,13.48
						c-1.09,2.8-2.2,5.6-3.33,8.39c-0.69-3.35-1.59-6.66-2.85-9.94c-0.89-2.19-1.93-4.36-3.56-6.44c-0.84-1.02-1.84-2.08-3.37-2.79
						c-1.58-0.75-3.4-0.71-4.78-0.34c-2.82,0.8-4.76,2.36-6.54,3.94c-1.76,1.6-3.3,3.32-4.71,5.13c-2.43,3.08-4.55,6.34-6.39,9.75
						c-0.28,0.52-0.55,1.04-0.82,1.56c-1.36,0.57-2.88,0.96-4.26,0.95c-0.72-0.01-1.4-0.14-1.95-0.44c-0.53-0.3-1.06-0.77-1.11-1.12
						c-0.16-0.51-0.19-1.29-0.17-2.03c0.01-0.75,0.07-1.53,0.16-2.32c0.17-1.58,0.43-3.17,0.71-4.77c0.53-3.2,1.19-6.41,1.72-9.67
						c0.5-3.27,1.05-6.54,1.04-10.04c-0.01-1.75-0.23-3.68-0.96-5.48c-0.7-1.8-1.93-3.46-3.38-4.65c-2.93-2.4-6.12-3.44-8.35-5.21
						c-0.28-0.22-0.55-0.44-0.78-0.69l-0.37-0.36c-0.06-0.09-0.11-0.16-0.18-0.23c-0.25-0.4-0.45-1.05-0.6-1.73
						c-0.24-1.42-0.27-2.99-0.25-4.57c0.07-2.53,0.31-5.1,0.58-7.68c2.01,0.84,4.03,1.64,6.07,2.4c2.01,0.77,4.03,1.49,6.07,2.17
						c4.3,1.42,8.67,2.68,13.14,3.56c4.46,0.86,9.02,1.46,13.6,1.17c0.32-0.02,0.58-0.28,0.59-0.6c0.02-0.35-0.25-0.65-0.6-0.67
						h-0.02c-8.85-0.37-17.38-3.26-25.67-6.38c-4.14-1.6-8.24-3.33-12.29-5.2c-4.05-1.85-8.08-3.77-12.05-5.8
						c-7.98-3.99-15.79-8.34-23.58-12.71c-7.81-4.36-15.61-8.73-23.63-12.81c-0.24-0.17-0.57-0.15-0.79,0.06l-0.02,0.03
						c-5.22,5.18-10.19,10.58-14.95,16.21c-0.98,1.16-1.95,2.33-2.9,3.52c-1.19,1.47-2.36,2.96-3.51,4.48
						c-1.3-3.03-2.6-6.05-3.64-9.12c-0.3-0.92-0.63-1.84-0.85-2.73c-0.25-0.89-0.41-1.84-0.25-2.17c0.15-0.55,0.7-1.3,1.25-2
						c0.55-0.71,1.22-1.43,1.88-2.14c2.7-2.86,5.52-5.91,7.73-9.47c0.58-0.86,1.08-1.82,1.57-2.72l1.34-2.7
						c0.87-1.8,1.72-3.59,2.6-5.33c0.88-1.72,1.78-3.43,2.81-4.87c1.02-1.41,2.28-2.53,3.08-2.35c0.21-0.07,0.48,0.13,0.75,0.15
						c0.53,0.18,1.13,0.43,1.63,0.54c0.77,0.22,1.51,0.39,2.25,0.55c0.27,0.06,0.53,0.11,0.8,0.17c1.99,0.4,3.97,0.74,5.94,1.03
						l11.78,1.74c3.61,0.51,7.19,1.15,10.66,2.09l-1.33,2.76c-0.93,0.48-1.85,0.98-2.73,1.5c-0.28,0.17-0.56,0.35-0.83,0.53
						c-3.73,2.39-7.07,5.2-9.96,8.48c-0.17,0.19-0.34,0.38-0.5,0.57c-0.18,0.21-0.21,0.52-0.05,0.76c0.19,0.3,0.58,0.39,0.88,0.2
						l0.03-0.02c0.93-0.59,1.87-1.17,2.82-1.73c3.13-1.89,6.31-3.65,9.55-5.1c2.11-0.93,4.25-1.73,6.38-2.3
						c2.13-0.56,4.27-0.84,6.28-0.75c1,0.08,1.98,0.2,2.88,0.52c0.46,0.15,0.88,0.33,1.34,0.53l1.37,0.74
						c0.46,0.22,0.9,0.56,1.34,0.87c0.45,0.32,0.9,0.61,1.34,0.95c0.85,0.75,1.74,1.41,2.58,2.22c3.38,3.13,6.62,6.72,10.04,10.17
						c3.43,3.46,7.04,6.86,11.02,9.87c3.98,3,8.34,5.57,12.95,7.58l3.5,1.39c1.19,0.41,2.4,0.73,3.6,1.1l1.81,0.53l1.77,0.43
						l3.57,0.82c4.77,1.04,9.58,1.87,14.43,2.47c4.83,0.62,9.79,0.86,14.49,1.14c0.43,0.03,0.83,0.07,1.24,0.11
						c0.02,0.03,0.03,0.07,0.05,0.1c-1.4,1.09-3.1,2.16-4.76,3.16c-2.24,1.34-4.54,2.63-6.86,3.91c-1.88,1.04-3.78,2.09-5.67,3.16
						c-1.06,0.61-2.11,1.22-3.19,1.93c-0.28,0.18-0.54,0.36-0.84,0.59c-0.16,0.13-0.27,0.19-0.47,0.38l-0.27,0.25
						C355.94,180.95,355.75,181.2,355.64,181.37z"/>
					<path class="st12" d="M279.15,153.52c0,0,55.71,21.43,71.71,18.02c16-3.4,12.51-7.61,12.51-7.61s18.13,1.57,18.21,3.02
						c0.09,1.45-17.11,14.21-22.04,14.81c-4.93,0.6,2.34,1.96,6.43,3.74c4.09,1.79,6.7,3.18,7.02,7.66
						c0.32,4.47-13.87,39.37-14.81,39.83c-0.94,0.47-3.92-17.68-11.28-20.2c0,0,8.47-3.15,11.02-14.2
						c2.55-11.05-8.55-17.3-17.36-19.22C331.75,177.46,295.35,167.63,279.15,153.52z"/>
					<path class="st12" d="M278.22,121.05l-1.33,2.76c-0.93,0.48-1.85,0.98-2.73,1.5c-4.06,2.51-7.69,5.49-10.79,9.01
						c-1.89,1.2-4.3,1.86-6.28,0.84c-1.99-1.04-2.84-3.38-3.52-5.52c-0.99-3.09-1.98-6.18-2.97-9.28c-0.47-1.46-0.94-2.93-1.56-4.34
						c0.27,0.06,0.53,0.11,0.8,0.17c1.99,0.4,3.97,0.74,5.94,1.03l11.78,1.74C271.17,119.47,274.75,120.11,278.22,121.05z"/>
					<g class="st8">
						<path class="st7" d="M278.22,121.05l-1.33,2.76c-0.93,0.48-1.85,0.98-2.73,1.5c-0.28,0.17-0.56,0.35-0.83,0.53
							c-2.03-0.02-4.09-0.36-6.09-0.69c-6.08-1.03-12.15-2.06-18.23-3.09c-0.68-0.12-1.4-0.23-2.04,0.01
							c-0.62,0.24-1.08,0.78-1.46,1.33c-2.23,3.21-2.81,7.36-5.09,10.54c-3.03,4.23-8.77,6.31-10.77,11.12
							c-1.44,3.46-0.52,7.18,0.75,10.84c-1.19,1.47-2.36,2.96-3.51,4.48c-1.3-3.03-2.6-6.05-3.64-9.12
							c-0.3-0.92-0.63-1.84-0.85-2.73c-0.25-0.89-0.41-1.84-0.25-2.17c0.15-0.55,0.7-1.3,1.25-2c0.55-0.71,1.22-1.43,1.88-2.14
							c2.7-2.86,5.52-5.91,7.73-9.47c0.58-0.86,1.08-1.82,1.57-2.72l1.34-2.7c0.87-1.8,1.72-3.59,2.6-5.33
							c0.88-1.72,1.78-3.43,2.81-4.87c1.02-1.41,2.28-2.53,3.08-2.35c0.21-0.07,0.48,0.13,0.75,0.15c0.53,0.18,1.13,0.43,1.63,0.54
							c0.77,0.22,1.51,0.39,2.25,0.55c0.27,0.06,0.53,0.11,0.8,0.17c1.99,0.4,3.97,0.74,5.94,1.03l11.78,1.74
							C271.17,119.47,274.75,120.11,278.22,121.05z"/>
						<path class="st7" d="M324.92,218.05c-0.67,3.53-1.3,7.49,0.72,10.46c0.23,0.33,0.48,0.64,0.76,0.92
							c-0.28,0.52-0.55,1.04-0.82,1.56c-1.36,0.57-2.88,0.96-4.26,0.95c-0.72-0.01-1.4-0.14-1.95-0.44
							c-0.53-0.3-1.06-0.77-1.11-1.12c-0.16-0.51-0.19-1.29-0.17-2.03c0.01-0.75,0.07-1.53,0.16-2.32c0.17-1.58,0.43-3.17,0.71-4.77
							c0.53-3.2,1.19-6.41,1.72-9.67c0.5-3.27,1.05-6.54,1.04-10.04c-0.01-1.75-0.23-3.68-0.96-5.48c-0.7-1.8-1.93-3.46-3.38-4.65
							c-2.93-2.4-6.12-3.44-8.35-5.21c-0.28-0.22-0.55-0.44-0.78-0.69l-0.37-0.36c-0.06-0.09-0.11-0.16-0.18-0.23
							c-0.25-0.4-0.45-1.05-0.6-1.73c-0.24-1.42-0.27-2.99-0.25-4.57c0.07-2.53,0.31-5.1,0.58-7.68c2.01,0.84,4.03,1.64,6.07,2.4
							c0.27,3.35-1.18,7.05,0.7,9.8c0.69,1.01,1.74,1.71,2.75,2.38c1.7,1.12,3.4,2.25,5.09,3.37c1.66,1.1,3.37,2.25,4.44,3.92
							c1.77,2.78,1.43,6.35,0.98,9.61C326.74,207.66,325.89,212.87,324.92,218.05z"/>
						<path class="st7" d="M378.08,167.49c-1.4,1.09-3.1,2.16-4.76,3.16c-2.24,1.34-4.54,2.63-6.86,3.91
							c0.09-0.17,0.17-0.34,0.23-0.52c0.4-1.12,0.17-2.57-0.84-3.21c-0.68-0.44-1.54-0.43-2.35-0.41
							c-9.95,0.22-19.94-0.98-29.55-3.55c-4.59-1.22-8.34-2.86-12.29-5.5c-3.92-2.6-7.48-5.7-10.91-8.9
							c-6.74-6.29-13.27-13.08-21.5-17.21c-3.1-1.56-6.44-2.72-9.9-2.88c-2.74-0.13-5.46,0.37-8.15,0.86
							c-1.55,0.29-3.1,0.57-4.65,0.86c3.13-1.89,6.31-3.65,9.55-5.1c2.11-0.93,4.25-1.73,6.38-2.3c2.13-0.56,4.27-0.84,6.28-0.75
							c1,0.08,1.98,0.2,2.88,0.52c0.46,0.15,0.88,0.33,1.34,0.53l1.37,0.74c0.46,0.22,0.9,0.56,1.34,0.87
							c0.45,0.32,0.9,0.61,1.34,0.95c0.85,0.75,1.74,1.41,2.58,2.22c3.38,3.13,6.62,6.72,10.04,10.17
							c3.43,3.46,7.04,6.86,11.02,9.87c3.98,3,8.34,5.57,12.95,7.58l3.5,1.39c1.19,0.41,2.4,0.73,3.6,1.1l1.81,0.53l1.77,0.43
							l3.57,0.82c4.77,1.04,9.58,1.87,14.43,2.47c4.83,0.62,9.79,0.86,14.49,1.14c0.43,0.03,0.83,0.07,1.24,0.11
							C378.05,167.42,378.06,167.46,378.08,167.49z"/>
					</g>
				</g>
			</g>
			<g>
				<path class="st13" d="M324.12,262.19c-0.09,3.78-0.54,7.38-1,11.05c-0.49,3.65-1.07,7.28-1.76,10.9
					c-1.37,7.24-3.07,14.44-5.79,21.45c-0.77,1.73-1.49,3.48-2.52,5.15c-0.43,0.86-1.07,1.65-1.69,2.45
					c-0.56,0.79-1.37,1.62-2.25,2.23c-1.76,1.27-3.73,1.97-5.65,2.43c-1.93,0.46-3.86,0.66-5.76,0.75
					c-7.62,0.31-14.95-0.73-22.24-1.63c-7.28-0.95-14.5-1.98-21.69-2.52c-3.6-0.28-7.16-0.44-10.72-0.31
					c-3.6,0.11-7.21,0.34-10.85,0.63c-3.65,0.27-7.32,0.59-11.12,0.67c-3.78,0.07-7.81-0.19-11.74-1.58
					c-3.95-1.35-7.42-4.05-9.91-7.15c-0.7-0.74-1.19-1.59-1.79-2.38l-0.86-1.21l-0.73-1.26c-0.48-0.84-0.98-1.67-1.44-2.53
					l-1.23-2.67c-1.51-3.6-2.68-7.5-2.78-11.54c-0.18-4.01,0.48-8.02,1.66-11.75c2.49-7.46,6.66-13.81,10.73-19.93l6.13-9.09
					c1.76-2.91,3.39-5.96,4.48-9.32c2.37-6.61,3.62-13.72,4.31-20.87c0.68-7.15,0.84-14.4,0.39-21.59c-0.21-3.59-0.56-7.2-1.24-10.6
					c-0.08-0.44-0.18-1.18-0.21-1.74c0.04-0.55,0.03-1.15,0.13-1.67c0.16-1.06,0.45-2.04,0.77-2.99c0.66-1.88,1.53-3.58,2.43-5.25
					c1.84-3.31,3.97-6.36,6.18-9.33c2.22-2.96,4.54-5.83,6.91-8.65c4.76-5.62,9.73-11.02,14.95-16.21l0.02-0.02
					c0.21-0.21,0.55-0.23,0.79-0.07l0,0c8.02,4.09,15.82,8.45,23.63,12.81c7.79,4.37,15.6,8.72,23.58,12.71
					c3.97,2.03,8,3.95,12.05,5.8c4.04,1.87,8.15,3.6,12.29,5.2c8.29,3.12,16.82,6.01,25.67,6.38l0.01,0
					c0.35,0.01,0.62,0.31,0.61,0.66c-0.01,0.33-0.28,0.59-0.59,0.61c-4.58,0.29-9.14-0.31-13.6-1.17
					c-4.47-0.88-8.83-2.14-13.14-3.57c-8.6-2.86-16.92-6.45-25.05-10.37c-4.08-1.94-8.08-4.02-12.06-6.14
					c-3.98-2.12-7.93-4.29-11.8-6.59c-7.74-4.61-15.29-9.55-22.3-15.28l0,0l0.81-0.09c-2.42,2.72-4.79,5.52-7.11,8.33
					c-2.34,2.8-4.63,5.64-6.86,8.53c-4.41,5.78-8.71,11.73-11.98,18.04c-0.79,1.58-1.54,3.18-2.03,4.78
					c-0.48,1.61-0.78,3.16-0.42,4.39c0.87,3.76,1.37,7.44,1.68,11.15c0.64,7.42,0.65,14.86,0.13,22.3
					c-0.54,7.43-1.77,14.89-4.22,22.12c-1.13,3.64-2.89,7.13-4.89,10.49c-2,3.1-4.08,6.14-6.09,9.17c-4,6.05-7.88,12.15-10,18.65
					c-1.02,3.25-1.51,6.57-1.39,9.88c0.05,3.32,1.03,6.57,2.31,9.69c2.78,6.21,6.8,12.34,12.84,14.37c3,1.08,6.4,1.36,9.92,1.35
					c3.53-0.03,7.16-0.3,10.81-0.53c3.67-0.24,7.37-0.44,11.09-0.51c3.76-0.09,7.53,0.12,11.23,0.46c7.41,0.7,14.67,1.93,21.89,3.04
					c7.2,1.08,14.44,2.24,21.49,2.11c1.75-0.04,3.49-0.19,5.13-0.54c1.64-0.34,3.19-0.89,4.42-1.74c0.63-0.42,1.13-0.9,1.65-1.59
					c0.52-0.64,1.05-1.25,1.47-2.03c0.95-1.42,1.7-3.04,2.47-4.62c2.83-6.55,4.81-13.6,6.44-20.69c0.83-3.55,1.52-7.13,2.18-10.71
					c0.64-3.57,1.28-7.23,1.55-10.76l0-0.06c0.03-0.35,0.33-0.61,0.68-0.58C323.88,261.56,324.13,261.85,324.12,262.19z"/>
				<path class="st13" d="M325.49,231.15c2.05-4.05,4.46-7.87,7.3-11.47c1.41-1.81,2.96-3.53,4.71-5.13
					c1.78-1.58,3.71-3.14,6.53-3.94c1.39-0.38,3.2-0.41,4.78,0.34c1.53,0.71,2.53,1.77,3.37,2.79c1.64,2.08,2.67,4.25,3.56,6.45
					c1.7,4.41,2.74,8.88,3.49,13.41c0.37,2.27,0.61,4.55,0.74,6.87c0.1,2.34,0.2,4.61-0.31,7.25c-0.17,0.68-0.29,1.39-0.95,2.38
					c-0.3,0.37-0.63,0.72-0.88,0.92c-0.28,0.25-0.53,0.44-0.79,0.63c-1.02,0.74-2.01,1.34-3.01,1.92c-1.99,1.15-4,2.18-6.01,3.19
					c-8.09,3.93-16.3,7.45-24.67,10.63c-0.33,0.12-0.7-0.04-0.82-0.37c-0.11-0.3,0.02-0.64,0.3-0.79
					c7.84-4.25,15.77-8.35,23.46-12.74c1.92-1.09,3.83-2.2,5.65-3.37c0.9-0.58,1.79-1.19,2.54-1.8c0.19-0.15,0.37-0.3,0.5-0.44
					c0.18-0.16,0.21-0.23,0.27-0.29c-0.03,0.06,0.13-0.34,0.19-0.74c0.29-1.76,0.2-3.99,0.03-6.08c-0.17-2.13-0.5-4.27-0.86-6.41
					c-0.75-4.25-1.8-8.5-3.35-12.41c-0.76-1.94-1.66-3.84-2.77-5.28c-0.54-0.72-1.17-1.27-1.66-1.54c-0.44-0.25-0.99-0.32-1.75-0.17
					c-1.53,0.32-3.33,1.44-4.96,2.68c-1.65,1.27-3.22,2.76-4.76,4.29c-3.05,3.1-5.96,6.47-8.78,9.89l-0.01,0.01
					c-0.22,0.27-0.63,0.31-0.9,0.09C325.42,231.74,325.35,231.41,325.49,231.15z"/>
				<path class="st13" d="M307.63,168.96c-0.35,3.25-0.7,6.49-0.79,9.67c-0.02,1.58,0.01,3.16,0.25,4.57
					c0.14,0.68,0.34,1.34,0.6,1.73c0.07,0.07,0.12,0.15,0.17,0.23l0.37,0.36c0.23,0.25,0.51,0.47,0.79,0.69
					c2.22,1.78,5.42,2.82,8.34,5.21c1.45,1.19,2.68,2.85,3.38,4.66c0.73,1.79,0.95,3.72,0.96,5.47c0.01,3.51-0.54,6.78-1.04,10.05
					c-0.52,3.26-1.19,6.47-1.72,9.67c-0.28,1.6-0.54,3.19-0.71,4.76c-0.09,0.79-0.15,1.57-0.16,2.32c-0.02,0.74,0.01,1.52,0.17,2.03
					c0.04,0.35,0.58,0.82,1.11,1.12c0.55,0.3,1.23,0.43,1.95,0.44c1.43,0.01,3.01-0.4,4.4-1l0.05-0.02
					c0.32-0.14,0.69,0.01,0.83,0.33c0.13,0.3,0.01,0.64-0.26,0.8c-1.51,0.89-3.11,1.56-4.96,1.71c-0.91,0.07-1.9,0-2.85-0.39
					c-0.46-0.2-0.93-0.44-1.31-0.78c-0.37-0.24-0.89-0.87-1.07-1.37c-0.42-1.03-0.48-1.92-0.56-2.8c-0.05-0.88-0.04-1.74,0-2.58
					c0.08-1.69,0.23-3.35,0.42-4.99c0.4-3.28,0.86-6.53,1.29-9.75c0.42-3.21,0.79-6.45,0.76-9.5c0-3.02-0.95-5.57-3.1-7.33
					c-2.1-1.87-5.33-2.96-8.16-5.39c-0.35-0.3-0.7-0.61-1.01-0.98l-0.48-0.53c-0.18-0.25-0.36-0.51-0.53-0.78
					c-0.54-1.05-0.69-2.02-0.82-2.95c-0.18-1.84-0.06-3.55,0.16-5.23c0.44-3.36,1.26-6.58,2.27-9.73c0.11-0.34,0.47-0.52,0.8-0.41
					C307.49,168.38,307.67,168.67,307.63,168.96z"/>
				<path class="st13" d="M226.55,162.82c-2.09-3.42-3.96-6.94-5.68-10.62c-0.42-0.93-0.81-1.87-1.15-2.88
					c-0.18-0.49-0.32-1.04-0.46-1.59c-0.06-0.29-0.09-0.64-0.13-0.96c-0.02-0.34,0.05-0.75,0.09-1.12c0.34-1.4,1-2.3,1.61-3.2
					c0.63-0.88,1.28-1.66,1.92-2.44c2.58-3.07,5.1-5.98,7-9.24c0.94-1.6,1.76-3.34,2.61-5.14c0.84-1.78,1.68-3.6,2.57-5.42
					c0.9-1.82,1.86-3.65,3.17-5.43c0.69-0.88,1.39-1.78,2.44-2.56c0.47-0.41,1.14-0.73,1.77-1.02c0.73-0.2,1.47-0.42,2.25-0.33
					c0.8-0.02,1.44,0.28,2.13,0.5c0.41,0.14,0.72,0.31,1.19,0.44c0.86,0.28,1.8,0.51,2.73,0.74c1.89,0.45,3.83,0.82,5.76,1.24
					c3.88,0.79,7.79,1.59,11.68,2.54c3.87,1.02,7.79,2.01,11.49,3.76c0.32,0.15,0.45,0.53,0.3,0.85c-0.13,0.29-0.46,0.42-0.75,0.34
					l-0.03-0.01c-3.75-1.07-7.63-1.77-11.54-2.32l-11.78-1.74c-1.98-0.29-3.95-0.63-5.95-1.03c-1-0.21-2.01-0.42-3.05-0.72
					c-0.5-0.12-1.1-0.37-1.63-0.55c-0.27-0.02-0.54-0.21-0.76-0.15c-0.8-0.18-2.06,0.94-3.08,2.35c-1.03,1.44-1.93,3.15-2.81,4.87
					c-0.88,1.74-1.72,3.53-2.6,5.33l-1.34,2.71c-0.49,0.89-0.99,1.85-1.56,2.72c-2.22,3.56-5.04,6.61-7.74,9.46
					c-0.65,0.72-1.32,1.43-1.88,2.15c-0.55,0.7-1.09,1.45-1.25,1.99c-0.16,0.33,0.01,1.28,0.25,2.17c0.23,0.9,0.55,1.81,0.85,2.74
					c1.26,3.69,2.89,7.33,4.44,10.97l0,0.01c0.14,0.32-0.01,0.7-0.34,0.83C227.05,163.2,226.72,163.09,226.55,162.82z"/>
				<path class="st13" d="M262.87,134.9c3.21-3.77,7.01-6.94,11.28-9.58c2.16-1.27,4.42-2.47,6.91-3.27
					c1.23-0.44,2.52-0.75,3.83-1.02c1.33-0.22,2.7-0.33,4.1-0.29c1.4,0.08,2.82,0.23,4.21,0.68c0.69,0.19,1.39,0.48,2.02,0.77
					l1.8,0.98c0.62,0.31,1.14,0.71,1.68,1.09c0.53,0.38,1.09,0.75,1.6,1.15c0.96,0.83,2,1.63,2.88,2.49
					c3.66,3.42,6.86,7.01,10.2,10.39c3.32,3.38,6.73,6.61,10.42,9.42c3.7,2.79,7.66,5.17,11.84,7.06l3.19,1.31
					c1.08,0.39,2.19,0.69,3.28,1.05l1.65,0.51l1.72,0.44l3.46,0.83c4.62,1.06,9.28,1.92,13.97,2.56c4.71,0.65,9.36,1.02,14.25,1.41
					c0.62,0.06,1.25,0.13,1.91,0.22c0.67,0.11,1.35,0.2,2.25,0.55c0.2,0.07,0.51,0.23,0.75,0.38c0.13,0.08,0.31,0.22,0.45,0.34
					c0.14,0.11,0.29,0.26,0.45,0.47c0.3,0.36,0.51,0.86,0.6,1.34c0.07,0.43,0.08,0.88-0.06,1.37c-0.14,0.56-0.29,0.71-0.45,1.01
					c-0.18,0.31-0.3,0.4-0.45,0.6c-0.3,0.36-0.57,0.59-0.85,0.85c-2.15,1.8-4.24,2.96-6.37,4.2c-4.25,2.41-8.57,4.57-12.76,6.83
					c-1.04,0.57-2.08,1.14-3.03,1.73c-0.23,0.14-0.46,0.3-0.65,0.43c-0.07,0.06-0.22,0.15-0.24,0.18l-0.07,0.05
					c-0.02,0.02,0.09-0.09,0.11-0.15c-0.01,0.01,0.2-0.36,0.18-0.62c0-0.12,0.01-0.33-0.05-0.49c-0.04-0.16-0.16-0.36-0.18-0.4
					c-0.27-0.37-0.33-0.33-0.34-0.35c0.04,0.02,0.26,0.11,0.49,0.18c0.97,0.28,2.2,0.5,3.37,0.74c1.19,0.24,2.41,0.51,3.63,0.85
					c1.22,0.34,2.45,0.75,3.67,1.32c1.21,0.57,2.44,1.33,3.46,2.49c0.51,0.58,0.92,1.29,1.21,2.04c0.27,0.71,0.4,1.7,0.34,2.36
					c-0.06,1.42-0.31,2.66-0.6,3.87c-1.19,4.84-2.91,9.34-4.65,13.86c-3.52,9-7.44,17.8-11.58,26.51c-0.15,0.32-0.53,0.45-0.85,0.3
					c-0.31-0.15-0.44-0.51-0.31-0.82c1.85-4.43,3.62-8.9,5.37-13.37c1.76-4.47,3.45-8.96,5.03-13.48c1.55-4.51,3.09-9.09,4.03-13.64
					c0.23-1.13,0.39-2.27,0.4-3.26l0-0.36c-0.01-0.11-0.03-0.18-0.04-0.27c0-0.17-0.09-0.36-0.15-0.55
					c-0.17-0.36-0.37-0.7-0.67-1.01c-1.2-1.29-3.38-2.1-5.55-2.65c-1.11-0.28-2.25-0.5-3.41-0.71c-1.18-0.22-2.34-0.39-3.69-0.73
					c-0.35-0.1-0.7-0.19-1.2-0.44c-0.27-0.17-0.59-0.29-1.04-0.9c-0.19-0.25-0.4-0.92-0.35-1.31c0.02-0.41,0.24-0.93,0.34-1.03
					c0.11-0.18,0.3-0.42,0.39-0.5l0.27-0.25c0.2-0.19,0.31-0.25,0.47-0.38c0.3-0.23,0.57-0.41,0.84-0.59
					c1.08-0.71,2.13-1.32,3.19-1.92c4.22-2.4,8.46-4.64,12.53-7.07c1.99-1.2,4.08-2.49,5.59-3.83c0.16-0.15,0.34-0.33,0.42-0.44
					c0.02-0.04,0.13-0.15,0.09-0.12c-0.02,0.03,0.03-0.05-0.07,0.2c-0.03,0.21-0.04,0.35-0.01,0.48c0.02,0.19,0.13,0.4,0.23,0.53
					c0.07,0.08,0.12,0.12,0.13,0.15c0.02,0.03,0.09,0.07,0.09,0.07c-0.02,0.01,0.03,0.01-0.06-0.01c-0.22-0.08-0.74-0.19-1.26-0.24
					c-0.53-0.06-1.1-0.11-1.68-0.15c-4.7-0.28-9.66-0.52-14.49-1.14c-4.85-0.6-9.67-1.43-14.43-2.47l-3.57-0.81l-1.78-0.43
					l-1.8-0.53c-1.2-0.37-2.42-0.69-3.6-1.11l-3.51-1.39c-4.61-2.01-8.96-4.57-12.95-7.57c-3.98-3.01-7.59-6.41-11.01-9.87
					c-3.43-3.45-6.66-7.04-10.05-10.17c-0.84-0.81-1.72-1.47-2.58-2.22c-0.44-0.34-0.89-0.63-1.33-0.95
					c-0.45-0.31-0.88-0.65-1.35-0.87l-1.37-0.74c-0.46-0.2-0.87-0.38-1.34-0.53c-0.9-0.32-1.88-0.44-2.88-0.53
					c-2.01-0.09-4.15,0.19-6.28,0.75c-2.13,0.57-4.27,1.37-6.38,2.31c-4.22,1.88-8.34,4.28-12.38,6.83l-0.03,0.02
					c-0.3,0.19-0.69,0.1-0.88-0.2C262.66,135.41,262.69,135.1,262.87,134.9z"/>
				<path class="st13" d="M275.69,126.29l19.01-39.38l1.23,2.94l-0.01,0c-3.19-1.13-6-2.57-8.73-4.38
					c-2.69-1.81-5.23-4.02-7.15-6.81c-1.91-2.76-3.12-6.18-3.05-9.6c0.03-1.69,0.25-3.38,0.74-4.96c0.19-0.81,0.54-1.56,0.8-2.33
					c0.36-0.74,0.64-1.51,1.06-2.22c1.55-2.88,3.93-5.54,7.04-6.92c3.08-1.42,6.52-1.6,9.69-1.09c3.19,0.51,6.19,1.67,8.97,3.17
					c1.39,0.76,2.72,1.62,3.97,2.6c1.24,0.99,2.44,2.06,3.36,3.49l-1.12,0.09l0,0c1.03-2.68,2.37-5.16,3.93-7.54
					c1.55-2.38,3.37-4.6,5.39-6.64c4.06-4.06,9.15-7.29,14.85-8.87c2.83-0.82,5.79-1.23,8.73-1.23c2.94-0.03,5.88,0.28,8.72,0.92
					c5.71,1.2,11.06,3.53,16.04,6.28c4.98,2.81,9.7,6.22,13.74,10.38c3.98,4.19,7.38,9.08,9.43,14.56
					c2.1,5.44,2.94,11.38,2.21,17.15c-0.39,2.88-1.11,5.73-2.41,8.35c-1.27,2.59-3.08,5.13-5.81,6.51l0,0l-0.29-1.19
					c8.34,0.47,15.88,5.38,20.68,12.03c0.57,0.85,1.25,1.65,1.73,2.55l1.52,2.68c0.47,0.91,0.85,1.86,1.28,2.79l0.62,1.41l0.49,1.45
					c1.41,3.8,2.35,7.92,2.31,12.14c-0.09,4.19-1.33,8.59-4.17,11.94c-2.8,3.35-6.79,5.47-10.89,6.37
					c-4.12,0.95-8.38,0.74-12.39-0.22c-4.02-0.94-7.79-2.81-11.01-5.29l0,0l-0.23-0.28c-1.95-2.36-3.38-4.93-4.73-7.55
					c-1.38-2.6-2.87-5.15-4.45-7.64c-3.17-4.97-6.69-9.72-10.65-14.06c-1.98-2.17-4.07-4.24-6.27-6.18
					c-2.22-1.92-4.56-3.68-7.02-5.28c-2.47-1.58-5.04-2.98-7.73-4.16c-2.7-1.15-5.51-2.02-8.38-2.72l-0.02-0.01
					c-0.34-0.08-0.55-0.43-0.47-0.77c0.08-0.32,0.39-0.53,0.71-0.48c3,0.47,5.97,1.19,8.84,2.24c2.85,1.08,5.64,2.35,8.27,3.91
					c2.61,1.58,5.12,3.33,7.49,5.25c2.36,1.94,4.6,4.01,6.72,6.19c4.18,4.42,7.94,9.23,11.21,14.34c1.64,2.55,3.18,5.16,4.62,7.83
					c1.45,2.66,2.69,5.46,3.03,8.62l-0.22-0.28l0,0c1.67,1.01,3.4,1.89,5.2,2.6c1.8,0.72,3.67,1.21,5.55,1.58
					c3.76,0.74,7.66,0.64,11.3-0.26c3.62-0.92,7-2.77,9.31-5.58c2.36-2.78,3.48-6.44,3.61-10.17c0.07-3.76-0.72-7.54-2.04-11.21
					l-0.45-1.38l-0.56-1.34c-0.38-0.89-0.71-1.8-1.13-2.67l-1.36-2.55c-0.43-0.87-1.04-1.62-1.55-2.43
					c-2.17-3.17-4.93-5.92-8.13-8.06c-1.59-1.08-3.32-1.96-5.12-2.65c-1.79-0.69-3.71-1.22-5.56-1.41l-0.02,0
					c-0.35-0.04-0.61-0.35-0.57-0.71c0.02-0.21,0.14-0.38,0.31-0.48l0,0c1.07-0.69,1.93-1.69,2.63-2.77
					c0.72-1.08,1.31-2.26,1.74-3.5c0.92-2.46,1.38-5.1,1.5-7.74c0.28-5.28-0.83-10.58-2.92-15.39c-2.1-4.82-5.21-9.18-8.98-12.89
					c-3.72-3.77-8.14-6.85-12.79-9.49c-4.68-2.67-9.62-4.78-14.74-6.01c-2.55-0.65-5.16-0.99-7.76-1.04
					c-2.6-0.06-5.21,0.15-7.73,0.77c-10.21,2.34-18.72,10.36-23.97,19.8l0,0c-0.13,0.32-0.5,0.48-0.82,0.34
					c-0.12-0.05-0.21-0.13-0.28-0.22l-0.02-0.03c-0.8-1.14-1.96-2.14-3.16-3.01c-1.21-0.88-2.51-1.64-3.85-2.31
					c-2.69-1.32-5.57-2.29-8.5-2.65c-2.91-0.35-5.89-0.04-8.39,1.24c-2.52,1.24-4.41,3.49-5.66,6.06c-1.28,2.58-2.02,5.47-1.94,8.23
					c0.05,2.78,1.11,5.41,2.77,7.65c1.67,2.25,3.94,4.1,6.41,5.62c2.46,1.51,5.24,2.78,7.9,3.6l0,0l0.19,0.07
					c1.04,0.39,1.56,1.55,1.17,2.59c-0.04,0.09-0.08,0.19-0.13,0.28l-21.55,38.05c-0.17,0.31-0.56,0.41-0.87,0.24
					C275.65,126.95,275.54,126.59,275.69,126.29z"/>
				<path class="st13" d="M359.46,162.98c0.86-1.91,2.13-3.41,3.5-4.81c1.41-1.36,2.79-2.75,4.23-4.07
					c1.42-1.34,2.88-2.65,4.36-3.94c1.48-1.29,2.99-2.54,4.56-3.74c0.28-0.21,0.68-0.16,0.9,0.12c0.18,0.24,0.17,0.55,0,0.78
					c-1.2,1.56-2.47,3.07-3.76,4.54c-1.29,1.47-2.61,2.92-3.96,4.34c-1.33,1.43-2.72,2.81-4.09,4.21c-1.4,1.36-2.91,2.62-4.83,3.47
					c-0.34,0.15-0.74,0-0.9-0.35C359.38,163.35,359.38,163.15,359.46,162.98z"/>
				<path class="st13" d="M179.02,413.93c1.16-9.34,2.95-18.61,5.24-27.76c2.28-9.15,5.22-18.15,8.73-26.93
					c3.56-8.76,7.66-17.31,12.54-25.45c2.43-4.07,5.01-8.05,7.82-11.89c1.39-1.93,2.86-3.8,4.38-5.64c1.54-1.85,3.06-3.61,4.85-5.39
					c0.65-0.64,1.67-0.68,2.36-0.11l0.08,0.07c2.24,1.86,4.9,3.58,7.57,5.07c2.69,1.49,5.49,2.79,8.37,3.89
					c5.76,2.16,11.83,3.5,17.97,3.85c3.07,0.18,6.15,0.1,9.23-0.12c3.08-0.28,6.16-0.68,9.21-1.28c3.06-0.58,6.07-1.41,9.07-2.3
					c3-0.88,5.96-1.97,8.83-3.18l0.03-0.01c0.32-0.14,0.7,0.02,0.83,0.34c0.12,0.3,0.01,0.63-0.26,0.79
					c-5.56,3.29-11.59,5.61-17.84,7.24c-6.24,1.65-12.76,2.45-19.29,2.13c-6.53-0.33-12.97-1.76-19.08-4.03
					c-3.05-1.15-6-2.55-8.85-4.14c-2.86-1.62-5.54-3.34-8.18-5.54l2.44-0.04c-3.14,3.15-6.11,6.83-8.85,10.52
					c-2.77,3.71-5.34,7.58-7.76,11.54c-4.84,7.93-9.04,16.26-12.69,24.83c-3.62,8.58-6.72,17.4-9.27,26.38
					c-2.58,8.98-4.59,18.12-6.2,27.34c-0.06,0.35-0.39,0.58-0.73,0.52C179.21,414.58,178.98,414.26,179.02,413.93z"/>
				<path class="st13" d="M248.36,312.27c0.22,1.95,0.27,3.89,0.31,5.8c0.01,0.96,0.06,1.91,0.01,2.87
					c-0.05,0.96-0.1,1.91-0.32,2.91l0,0.02c-0.08,0.36-0.44,0.59-0.8,0.51c-0.2-0.05-0.37-0.18-0.45-0.36
					c-0.47-0.95-0.71-1.95-0.85-2.95c-0.15-1-0.15-2.01-0.13-3.01c0.07-2.01,0.32-3.99,0.98-5.94c0.11-0.34,0.48-0.52,0.82-0.41
					c0.25,0.08,0.41,0.3,0.44,0.54L248.36,312.27z"/>
				<path class="st13" d="M303.01,315.65c6.1,2.72,11.98,5.75,17.91,8.53c2.93,1.43,5.92,2.76,8.84,3.89
					c0.73,0.27,1.46,0.55,2.17,0.75l1.19,0.38c0.54,0.16,1.05,0.37,1.54,0.62c1.99,0.97,3.44,2.46,4.64,3.96
					c2.36,3.06,3.69,6.41,4.68,9.75c1.02,3.34,1.61,6.73,1.99,10.11c0.74,6.77,0.64,13.55-0.35,20.19
					c-0.05,0.35-0.38,0.59-0.73,0.54c-0.3-0.04-0.52-0.29-0.54-0.58c-0.57-6.61-1.3-13.13-2.62-19.48c-0.32-1.59-0.7-3.15-1.12-4.69
					c-0.41-1.55-0.86-3.07-1.39-4.55c-1.07-2.93-2.36-5.81-4.1-7.99c-0.87-1.07-1.85-1.96-2.87-2.43c-0.25-0.13-0.5-0.24-0.76-0.32
					l-0.2-0.07l-0.33-0.11l-0.65-0.21c-0.89-0.27-1.7-0.59-2.51-0.93c-3.24-1.33-6.18-2.99-9.11-4.65
					c-5.78-3.46-11.28-7.25-16.38-11.65c-0.27-0.23-0.3-0.64-0.07-0.9C302.45,315.59,302.75,315.54,303.01,315.65L303.01,315.65z"/>
				<path class="st13" d="M208.94,312.65c-4.36,6.03-8.73,11.95-12.96,17.92c-4.23,5.97-8.35,11.99-12.3,18.1
					c-0.96,1.55-2.01,3.04-2.93,4.61c-0.93,1.56-1.89,3.11-2.85,4.66c-0.94,1.56-1.82,3.15-2.74,4.72l-1.39,2.36l-1.3,2.41
					c-0.87,1.6-1.74,3.21-2.65,4.8c-0.82,1.63-1.61,3.28-2.47,4.91l-1.28,2.45c-0.37,0.84-0.76,1.67-1.16,2.5
					c-0.79,1.67-1.6,3.34-2.47,5l-0.02,0.03c-0.16,0.31-0.55,0.43-0.86,0.27c-0.25-0.13-0.38-0.41-0.33-0.67
					c0.32-1.85,0.69-3.69,1.09-5.53c0.19-0.92,0.4-1.85,0.62-2.76l0.79-2.71c0.53-1.81,1.13-3.59,1.7-5.4
					c0.65-1.77,1.35-3.52,2.04-5.27c0.35-0.88,0.7-1.76,1.07-2.62l1.19-2.56c0.83-1.69,1.59-3.43,2.48-5.09
					c1.79-3.32,3.6-6.64,5.65-9.8c4.02-6.38,8.49-12.47,13.52-18.07c1.26-1.4,2.56-2.76,3.85-4.13c1.35-1.31,2.68-2.64,4.06-3.93
					c2.79-2.53,5.63-4.99,8.79-7.12c0.29-0.2,0.69-0.12,0.89,0.17c0.15,0.23,0.14,0.52-0.01,0.74L208.94,312.65z"/>
				<path class="st13" d="M335.63,333.97c-1.96,1.58-3.83,3.46-5.49,5.44c-1.73,1.93-3.27,4.03-4.76,6.16
					c-2.92,4.3-5.44,8.86-7.64,13.58l-1.63,3.55l-1.44,3.64c-1.06,2.39-1.74,4.92-2.67,7.37c-0.84,2.48-1.52,5.01-2.29,7.52
					c-0.69,2.53-1.3,5.09-2.03,7.63l-0.01,0.03c-0.1,0.34-0.45,0.53-0.79,0.43c-0.31-0.09-0.5-0.39-0.45-0.7
					c0.36-2.63,0.81-5.25,1.24-7.89c0.62-2.59,1.17-5.2,1.87-7.78c0.37-1.28,0.75-2.56,1.15-3.84c0.37-1.29,0.82-2.55,1.3-3.8
					l1.43-3.75l1.64-3.67c2.31-4.84,4.96-9.55,8.24-13.82c3.31-4.24,6.95-8.26,11.63-11.18c0.3-0.18,0.69-0.09,0.87,0.2
					c0.17,0.27,0.11,0.63-0.14,0.83L335.63,333.97z"/>
				<path class="st13" d="M348.83,235.37c-0.69-2.41-1.5-4.86-2.7-6.99c-0.59-1.05-1.28-2.06-2.09-2.65
					c-0.4-0.29-0.8-0.43-1.17-0.43c-0.38,0-0.74,0.12-1.25,0.39c-1.91,1.07-3.53,3-4.75,5.07c-0.61,1.04-1.16,2.13-1.54,3.24
					c-0.19,0.55-0.34,1.11-0.41,1.61c-0.02,0.24-0.04,0.48-0.02,0.62c0.01,0.16,0.09,0.1-0.16-0.11c0,0,0.13,0.06,0.19,0.1
					l0.36,0.15c0.26,0.1,0.55,0.2,0.85,0.29c0.6,0.2,1.23,0.39,1.87,0.62c1.27,0.46,2.59,1,3.81,1.94c1.22,0.89,2.25,2.45,2.41,4.09
					c0.19,1.63-0.22,3.11-0.86,4.43c-1.33,2.61-3.53,4.53-6.07,5.71c-1.29,0.54-2.7,0.95-4.24,0.76c-0.76-0.1-1.56-0.4-2.17-0.96
					c-0.61-0.56-0.96-1.32-1.1-2.04c-0.07-0.34,0.15-0.68,0.5-0.75c0.32-0.06,0.63,0.13,0.73,0.43c0.34,1.08,1.16,1.63,2.2,1.68
					c1.05,0.05,2.19-0.35,3.22-0.9c2.07-1.09,3.86-2.88,4.76-4.93c0.43-1.01,0.64-2.14,0.5-3.08c-0.13-0.94-0.64-1.71-1.5-2.33
					c-0.85-0.62-1.93-1.1-3.08-1.5c-0.57-0.2-1.18-0.38-1.8-0.58c-0.32-0.1-0.63-0.2-0.98-0.33l-0.53-0.21
					c-0.22-0.12-0.39-0.18-0.65-0.36c-0.78-0.61-0.89-1.34-0.96-1.81c-0.06-0.5-0.01-0.9,0.04-1.3c0.12-0.77,0.32-1.46,0.56-2.13
					c0.48-1.33,1.1-2.55,1.82-3.72c0.73-1.16,1.56-2.26,2.52-3.27c0.97-1,2.07-1.93,3.44-2.56c0.63-0.3,1.53-0.62,2.45-0.53
					c0.92,0.07,1.75,0.48,2.36,0.98c1.23,1.02,1.92,2.26,2.52,3.48c1.1,2.49,1.78,5.03,2.18,7.65c0.05,0.35-0.19,0.67-0.53,0.72
					c-0.32,0.05-0.62-0.15-0.71-0.45L348.83,235.37z"/>
				<g>
					<path class="st13" d="M145.69,220.32c2.02-1.52,4.05-3.04,6.26-4.38c2.2-1.33,4.72-2.48,7.41-2.83c1.33-0.2,2.66-0.22,3.97-0.2
						c0.65,0.03,1.31,0.04,1.95,0.1l0.97,0.07l1.05,0.17c2.79,0.52,5.24,1.98,7.26,3.72c2.03,1.75,3.73,3.79,5.2,5.95
						c1.47,2.17,2.71,4.48,3.7,6.94c0.98,2.53,1.5,5.14,1.61,7.85c0.04,1.36-0.04,2.77-0.46,4.2c-0.4,1.41-1.26,2.9-2.62,3.87
						c-0.33,0.24-0.7,0.41-1.06,0.61c-0.37,0.16-0.75,0.27-1.12,0.4c-0.37,0.09-0.75,0.15-1.13,0.21c-0.38,0.06-0.83,0.03-1.24,0.03
						c-0.85-0.05-1.74-0.34-2.47-0.8c-0.72-0.46-1.3-1.04-1.75-1.63c-1.77-2.38-2.55-4.78-3.66-6.98c-1.06-2.19-2.29-4.22-3.91-5.7
						c-1.52-1.32-3.59-1.87-5.58-1.3c-1,0.21-1.92,0.77-2.79,1.36c-0.39,0.38-0.82,0.69-1.19,1.1c-0.33,0.44-0.74,0.8-1.02,1.29
						c-1.24,1.83-2.07,4.02-2.41,6.33c-0.33,2.3-0.43,4.7-0.13,7.07c0.24,2.36,0.73,4.7,1.67,6.81c0.91,2.11,2.21,4.04,3.88,5.47
						c1.65,1.46,3.75,2.3,5.76,2.32c0.99-0.04,1.94-0.27,2.74-0.72c0.69-0.43,1.28-1.17,1.73-2.14c0.91-1.95,1.3-4.41,1.79-6.9
						c0.25-1.26,0.51-2.55,1-3.92c0.25-0.68,0.57-1.39,1.07-2.1c0.49-0.7,1.27-1.41,2.24-1.76c0.24-0.09,0.48-0.14,0.72-0.2
						c0.22-0.05,0.39-0.05,0.59-0.08c0.38-0.05,0.76-0.09,1.16-0.07c0.39-0.01,0.79,0.02,1.2,0.1c0.4,0.04,0.81,0.17,1.2,0.3
						c1.62,0.53,2.95,1.78,3.72,3.13c0.8,1.36,1.18,2.79,1.39,4.17c0.23,1.39,0.26,2.75,0.22,4.09c-0.11,2.67-0.51,5.28-1.21,7.85
						c-1.39,5.11-4.09,9.99-8.04,13.65c-1.96,1.84-4.19,3.37-6.56,4.59c-2.39,1.21-4.87,2.05-7.52,2.69
						c-5.08,0.88-10.09,1.45-15.2,1.76c-2.54,0.17-5.1,0.21-7.67,0.08c-2.56-0.14-5.16-0.36-7.67-1.3c-0.33-0.12-0.5-0.49-0.37-0.82
						c0.11-0.3,0.44-0.47,0.74-0.4l0.03,0.01c2.32,0.56,4.83,0.6,7.29,0.52c2.48-0.11,4.96-0.29,7.44-0.58
						c4.94-0.57,9.93-1.43,14.77-2.37c2.23-0.65,4.55-1.42,6.64-2.54c2.09-1.12,4.04-2.49,5.76-4.1c3.47-3.21,5.84-7.5,7.09-12.1
						c0.63-2.29,0.99-4.7,1.09-7.07c0.03-1.18,0.01-2.35-0.18-3.45c-0.16-1.1-0.47-2.15-0.96-2.97c-0.49-0.83-1.12-1.4-1.92-1.66
						c-0.2-0.06-0.4-0.14-0.63-0.15c-0.21-0.04-0.44-0.07-0.68-0.05c-0.23-0.02-0.47,0.01-0.72,0.04c-0.11,0.02-0.27,0.02-0.35,0.04
						c-0.06,0.03-0.13,0.03-0.19,0.05c-0.41,0.12-0.94,0.8-1.3,1.84c-0.36,1.01-0.62,2.2-0.86,3.41c-0.5,2.43-0.84,5.04-2.05,7.7
						c-0.6,1.31-1.57,2.69-3.03,3.6c-1.4,0.82-2.96,1.18-4.48,1.23c-3.05-0.02-5.87-1.26-8.01-3.12c-2.17-1.85-3.75-4.22-4.83-6.73
						c-1.11-2.51-1.66-5.17-1.94-7.81c-0.33-2.64-0.19-5.33,0.21-8c0.43-2.67,1.42-5.33,3.03-7.65c0.36-0.6,0.9-1.1,1.35-1.65
						c0.48-0.53,1.07-0.97,1.6-1.45c1.2-0.82,2.5-1.57,3.98-1.89c1.44-0.41,3.02-0.38,4.51-0.04c1.51,0.33,2.86,1.16,4,2.14
						c2.09,1.96,3.46,4.37,4.57,6.71c1.11,2.32,1.99,4.77,3.25,6.45c0.64,0.84,1.28,1.26,2.06,1.31c0.22-0.02,0.4,0.03,0.64-0.01
						c0.24-0.05,0.5-0.08,0.73-0.13c0.22-0.08,0.45-0.14,0.66-0.23c0.19-0.12,0.4-0.2,0.58-0.33c1.45-0.97,1.97-3.27,1.89-5.56
						c-0.07-2.32-0.52-4.74-1.36-6.91c-1.77-4.44-4.48-8.72-8.01-11.87c-1.77-1.57-3.83-2.75-6-3.2l-0.82-0.16l-0.91-0.1
						c-0.61-0.07-1.22-0.1-1.83-0.14c-1.21-0.04-2.41-0.07-3.58,0.08c-4.69,0.42-8.9,3.43-13.27,5.89l-0.01,0.01
						c-0.31,0.17-0.69,0.06-0.87-0.24C145.37,220.86,145.44,220.51,145.69,220.32z"/>
					<path class="st13" d="M138.83,228.92c-1.86,0.26-3.74,0.61-5.58,1c-1.84,0.39-3.67,0.83-5.45,1.41
						c-1.77,0.57-3.52,1.21-5.13,2.04c-1.63,0.81-3.16,1.73-4.61,2.87l-0.18,0.14c-0.23,0.18-0.56,0.14-0.74-0.09l-0.04-0.06l0,0
						c-2.29-2.52-4.74-4.93-7.27-7.23c-2.53-2.3-5.17-4.47-7.97-6.34c-1.4-0.94-2.85-1.78-4.35-2.47c-1.49-0.68-3.06-1.2-4.57-1.32
						c-1.53-0.14-2.93,0.27-3.95,1.22c-0.28,0.21-0.51,0.49-0.73,0.79c-0.26,0.3-0.39,0.55-0.5,0.8c-0.19,0.5-0.16,1.06,0.06,1.7
						c0.49,1.29,1.56,2.59,2.67,3.8c1.13,1.21,2.38,2.37,3.64,3.52c2.53,2.3,5.16,4.57,7.65,7.03c2.48,2.47,4.89,5.11,6.74,8.28
						c0.46,0.79,0.87,1.62,1.24,2.48c0.35,0.84,0.65,1.67,0.95,2.51c0.58,1.68,1.06,3.37,1.49,5.06c1.74,6.76,2.75,13.62,4.74,20.01
						c0.51,1.58,1.08,3.14,1.81,4.55c0.73,1.4,1.61,2.69,2.69,3.53c1.93,1.66,5.36,1.07,8.1-0.25c2.8-1.35,5.21-3.59,6.71-6.28
						c1.52-2.7,2.09-5.84,1.76-8.97c-0.13-1.57-0.54-3.13-1-4.67c-0.56-1.52-1.15-3.05-1.93-4.51c-1.5-2.96-3.43-5.75-5.45-8.51
						l-0.01-0.01c-0.21-0.28-0.15-0.68,0.14-0.89c0.25-0.18,0.58-0.16,0.8,0.04c2.6,2.33,4.94,5.01,6.87,8.02
						c0.95,1.51,1.79,3.12,2.47,4.82c0.59,1.72,1.2,3.49,1.36,5.36c0.19,1.85,0.23,3.77-0.16,5.63c-0.37,1.86-1.03,3.67-1.97,5.33
						c-1.88,3.31-4.77,5.96-8.18,7.59c-1.71,0.81-3.56,1.38-5.54,1.52c-0.99,0.08-2.02,0.02-3.07-0.24l-0.78-0.23l-0.77-0.35
						c-0.49-0.26-0.93-0.54-1.33-0.87c-1.64-1.3-2.69-2.96-3.54-4.6c-0.85-1.66-1.45-3.35-1.98-5.05
						c-2.06-6.79-3.01-13.62-4.68-20.21c-0.42-1.64-0.86-3.27-1.38-4.86c-0.26-0.79-0.54-1.58-0.84-2.34
						c-0.3-0.73-0.65-1.45-1.04-2.16c-1.58-2.82-3.8-5.37-6.16-7.79c-2.37-2.42-4.92-4.7-7.45-7.08c-1.26-1.19-2.53-2.4-3.72-3.73
						c-1.18-1.34-2.38-2.73-3.11-4.69c-0.34-0.97-0.45-2.24,0.01-3.35c0.23-0.54,0.55-1.03,0.86-1.38c0.3-0.39,0.63-0.77,1.04-1.08
						c0.75-0.7,1.73-1.14,2.7-1.44c0.49-0.11,1-0.2,1.49-0.24c0.49,0.01,0.99-0.05,1.46,0.04c1.92,0.2,3.65,0.86,5.26,1.64
						c1.61,0.79,3.12,1.73,4.55,2.74c5.72,4.1,10.61,9.05,15.13,14.31l0,0l-0.96,0c1.11-1.74,2.76-3.06,4.5-4.07
						c1.75-1.02,3.66-1.65,5.55-2.22c1.9-0.55,3.84-0.91,5.78-1.16c1.95-0.24,3.88-0.37,5.86-0.31c0.35,0.01,0.63,0.3,0.62,0.65
						c-0.01,0.32-0.25,0.57-0.55,0.61L138.83,228.92z"/>
					<path class="st13" d="M118.26,234.74c-1.41-3.35-2.95-6.68-4.63-9.9c-1.65-3.24-3.5-6.38-5.59-9.3
						c-1.07-1.45-2.17-2.86-3.41-4.14l-1.94-2.01c-0.65-0.74-1.26-1.55-1.76-2.45c-0.48-0.91-0.86-1.91-1-2.99
						c-0.14-1.08-0.01-2.23,0.43-3.26c0.88-2.11,2.85-3.46,4.84-3.99c4.08-1.1,8.32,0.54,11.14,3.17c2.89,2.6,5.03,5.72,6.98,8.89
						c1.95,3.18,3.62,6.51,5.16,9.87c1.55,3.37,2.96,6.78,4.24,10.27c0.12,0.33-0.05,0.69-0.38,0.81c-0.32,0.12-0.68-0.04-0.81-0.36
						l-0.01-0.02c-2.73-6.78-5.94-13.44-9.77-19.61c-1.94-3.05-4.09-6.04-6.73-8.33c-2.54-2.31-6.11-3.48-9.25-2.63
						c-1.54,0.42-2.88,1.42-3.42,2.77c-0.57,1.33-0.28,2.94,0.5,4.36c0.4,0.71,0.91,1.38,1.47,2.02l1.91,1.95
						c1.33,1.36,2.51,2.85,3.63,4.36c4.38,6.13,7.56,12.96,9.6,20.14c0.1,0.34-0.1,0.69-0.44,0.78c-0.31,0.09-0.64-0.07-0.76-0.36
						L118.26,234.74z"/>
					<path class="st13" d="M133.17,228.91c-1.63-6.94-2.89-13.93-4.37-20.86c-0.77-3.45-1.6-6.9-2.72-10.19
						c-0.14-0.42-0.29-0.79-0.43-1.25l-0.41-1.44c-0.17-0.46-0.13-1-0.2-1.5c-0.02-0.25-0.05-0.51-0.05-0.76l0.1-0.78
						c0.23-2.07,1.47-4.08,3.3-5.16c1.81-1.11,4.01-1.34,5.97-0.88c2.01,0.41,3.69,1.6,5.07,2.92l0.99,1.05
						c0.31,0.36,0.55,0.77,0.83,1.16c0.25,0.4,0.57,0.77,0.77,1.19l0.63,1.26c0.45,0.84,0.75,1.68,1.09,2.52
						c0.35,0.84,0.62,1.7,0.92,2.55c1.16,3.43,1.99,6.96,2.52,10.53c0.53,3.57,0.82,7.15,0.68,10.8c-0.01,0.35-0.31,0.62-0.66,0.61
						c-0.34-0.01-0.61-0.29-0.61-0.63l0-0.04c-0.02-6.99-1.4-14.05-3.74-20.64c-1.21-3.3-2.51-6.59-4.88-8.85
						c-1.19-1.08-2.56-2.02-4.09-2.28c-1.5-0.31-3.08-0.11-4.31,0.66c-1.24,0.76-2.05,2.06-2.21,3.53l-0.08,0.55
						c0,0.19,0.03,0.38,0.05,0.57c0.06,0.38,0,0.76,0.16,1.14l0.33,1.13c0.12,0.4,0.3,0.85,0.45,1.28
						c1.21,3.45,2.06,6.94,2.86,10.44c1.6,6.99,2.79,14.04,3.29,21.2c0.02,0.35-0.24,0.65-0.59,0.68
						C133.52,229.43,133.24,229.22,133.17,228.91L133.17,228.91z"/>
				</g>
				<path class="st13" d="M123.46,286.25c2.42,2.99,5.76,5.09,9.4,6.2c3.65,1.09,7.54,1.38,11.36,0.96
					c3.8-0.48,7.63-1.41,10.96-3.17c3.35-1.75,6.16-4.47,8.09-7.82c0.17-0.31,0.56-0.41,0.87-0.24c0.28,0.16,0.39,0.5,0.28,0.79
					c-0.76,1.92-1.88,3.71-3.27,5.28c-1.4,1.55-3.03,2.92-4.85,3.98c-1.81,1.06-3.78,1.86-5.77,2.4c-1.97,0.61-4.02,0.91-6.07,1.15
					c-2.06,0.2-4.13,0.18-6.2,0.01c-2.07-0.19-4.1-0.68-6.07-1.37c-3.93-1.36-7.51-3.94-9.78-7.43c-0.19-0.29-0.11-0.69,0.19-0.88
					c0.27-0.18,0.64-0.12,0.84,0.13L123.46,286.25z"/>
				<path class="st13" d="M151.35,285.61c0.48,0.73,0.6,1.28,0.77,1.93c0.14,0.62,0.22,1.25,0.25,1.87c0.06,1.24,0,2.48-0.26,3.69
					c-0.07,0.35-0.42,0.57-0.77,0.5c-0.26-0.06-0.46-0.28-0.5-0.53c-0.21-1.2-0.28-2.38-0.37-3.54l-0.22-3.3l-0.02-0.25
					c-0.02-0.34,0.23-0.63,0.57-0.65C151.02,285.32,151.23,285.44,151.35,285.61z"/>
				<path class="st13" d="M124.87,288.3l-0.7,7.45c-0.22,2.48-0.49,4.96-0.76,7.44l-1.59,14.86l-1.6,14.84
					c-0.27,2.47-0.57,4.93-0.88,7.39c-0.13,1.22-0.33,2.46-0.45,3.67l-0.21,1.83l-0.11,1.76l-0.01,0.15
					c-0.02,0.35-0.32,0.61-0.66,0.59c-0.29-0.02-0.52-0.23-0.58-0.49c-0.14-0.64-0.29-1.31-0.39-1.97l-0.16-1.91
					c-0.1-1.28-0.07-2.53-0.09-3.8c0.04-2.52,0.16-5.03,0.39-7.52c0.46-4.99,1.05-9.95,1.72-14.9c0.64-4.95,1.42-9.89,2.2-14.82
					c0.38-2.47,0.79-4.93,1.24-7.39c0.44-2.46,0.87-4.92,1.38-7.37c0.07-0.34,0.4-0.57,0.75-0.5
					C124.68,287.68,124.89,287.98,124.87,288.3z"/>
				<path class="st13" d="M159.49,288.95c1.96,6.38,3.55,12.83,5.03,19.32c0.73,3.24,1.43,6.5,2.05,9.76
					c0.66,3.26,1.24,6.54,1.78,9.82c1.13,6.56,1.98,13.18,2.51,19.85c0.22,3.34,0.39,6.69,0.32,10.06
					c-0.1,3.36-0.26,6.79-1.36,10.13c-0.11,0.33-0.47,0.52-0.8,0.41c-0.28-0.09-0.46-0.37-0.44-0.65l0-0.06
					c0.25-3.17-0.04-6.45-0.38-9.7c-0.36-3.26-0.79-6.52-1.27-9.77c-0.89-6.52-1.95-13.04-2.92-19.58l-3.03-19.62
					c-0.98-6.55-1.95-13.12-2.74-19.72c-0.04-0.35,0.2-0.67,0.55-0.71C159.11,288.47,159.4,288.66,159.49,288.95z"/>
				<path class="st13" d="M205.9,309.74c-3.95,1.52-8.04,2.44-12.26,2.92c-2.11,0.25-4.25,0.34-6.44,0.24l-0.82-0.05l-0.51,0.04
					c-0.17,0.01-0.33,0.01-0.5,0.01l-0.54,0.14l-0.55,0.12c-0.18,0.05-0.38,0.15-0.56,0.22c-0.38,0.17-0.76,0.26-1.14,0.5
					c-3.1,1.6-5.99,4.37-8.61,7.25c-1.31,1.47-2.55,3.01-3.71,4.61c-1.18,1.6-2.24,3.28-3.05,5.06l-0.02,0.04
					c-0.15,0.32-0.53,0.46-0.85,0.32c-0.25-0.11-0.39-0.36-0.37-0.62c0.12-2.23,0.84-4.31,1.68-6.27c0.89-1.95,1.89-3.87,3.13-5.63
					c1.21-1.79,2.56-3.48,4.14-5.03c1.56-1.56,3.28-3.02,5.42-4.11c0.49-0.31,1.1-0.52,1.67-0.75c0.29-0.11,0.57-0.23,0.88-0.32
					l0.96-0.21l0.96-0.19l1.04-0.01l1.04,0.02l0.71,0.07c1.9,0.21,3.88,0.27,5.88,0.34l12.21,0.05h0.01c0.36,0,0.64,0.29,0.64,0.65
					C206.31,309.41,206.14,309.64,205.9,309.74z"/>
				<g>
					<path class="st13" d="M253.83,201.63c0.67,1.57,0.78,3.25,0.35,4.9c-0.4,1.65-1.44,3.08-2.67,4.17
						c-2.55,2.1-5.64,3.12-8.64,3.76c-3.02,0.68-6.05,0.88-8.93,1.33c-1.43,0.22-2.85,0.51-4.06,0.99
						c-1.23,0.48-2.11,1.19-2.48,2.16c-0.38,0.96-0.38,2.32-0.04,3.58l0.09,0.48l0.17,0.47l0.34,0.93c0.32,0.59,0.6,1.2,0.99,1.76
						c1.52,2.26,3.76,4.05,6.24,5.3c4.99,2.59,11.31,2.13,16.04-1.25c0.29-0.2,0.68-0.14,0.89,0.15c0.19,0.27,0.14,0.64-0.1,0.85
						l-0.01,0.01c-2.35,2.03-5.33,3.41-8.49,3.87c-3.17,0.43-6.44-0.12-9.36-1.41c-2.93-1.28-5.52-3.37-7.4-6.04
						c-0.47-0.66-0.84-1.41-1.24-2.13l-0.45-1.17l-0.22-0.59l-0.14-0.62l-0.26-1.24c-0.05-0.42-0.1-0.85-0.09-1.29
						c-0.03-0.87,0.12-1.82,0.49-2.72c0.36-0.9,0.99-1.72,1.72-2.31c0.73-0.6,1.53-1.01,2.32-1.31c1.58-0.6,3.14-0.86,4.66-1.08
						c3.04-0.42,6-0.62,8.86-1.09c2.85-0.46,5.64-1.32,7.83-2.94c1.06-0.82,1.94-1.86,2.34-3.11c0.42-1.22,0.44-2.69,0.07-3.93
						l-0.02-0.07c-0.1-0.33,0.09-0.69,0.42-0.79C253.37,201.18,253.7,201.34,253.83,201.63z"/>
					<path class="st13" d="M249.8,244.43c-1.52-1.17-3.14-2.32-4.81-3.08c-0.83-0.35-1.69-0.65-2.39-0.59
						c-0.68,0.05-1.08,0.38-1.41,1.08c-0.69,1.38-0.31,3.14,0.61,4.74c0.88,1.6,2.18,3.1,3.52,4.44l0,0
						c0.28,0.19,0.36,0.57,0.17,0.86c-0.12,0.17-0.3,0.27-0.49,0.27l-0.12,0c-2.19,0.05-4.52,0.3-6.37,1.19
						c-0.93,0.43-1.69,1.03-2.12,1.81c-0.45,0.77-0.45,1.76-0.38,2.74c0.15,0.98,0.51,1.85,1.16,2.45c0.64,0.6,1.61,0.92,2.64,1.05
						c2.07,0.24,4.38-0.17,6.49-0.77l0.04-0.01c0.34-0.1,0.69,0.1,0.78,0.44c0.09,0.31-0.07,0.64-0.36,0.76
						c-2.23,0.94-4.57,1.56-7.13,1.41c-1.25-0.08-2.66-0.41-3.75-1.39c-1.1-0.96-1.67-2.34-1.88-3.63c-0.15-1.3-0.12-2.75,0.64-4.01
						c0.73-1.25,1.91-2.08,3.09-2.59c2.43-0.95,4.87-1.01,7.27-0.7l-0.45,1.13l0,0c-1.71-1.21-3.19-2.65-4.37-4.47
						c-0.59-0.89-1.07-1.92-1.27-3.08c-0.21-1.14-0.13-2.43,0.4-3.54c0.27-0.56,0.67-1.12,1.25-1.54c0.58-0.42,1.3-0.63,1.95-0.65
						c1.31-0.03,2.39,0.4,3.34,0.9c1.9,1.03,3.45,2.36,4.85,3.89c0.24,0.26,0.22,0.66-0.04,0.9c-0.23,0.21-0.58,0.22-0.82,0.04
						L249.8,244.43z"/>
					<g>
						<path class="st13" d="M235.38,239.5c-1.52-1.11-3.23-1.9-4.82-2.16c-1.62-0.23-3.14-0.1-4.66,0.42
							c-1.47,0.49-3.14,1.35-4.86,2.25c-1.73,0.87-3.53,1.79-5.42,2.64c-1.87,0.86-3.87,1.61-5.92,2.23
							c-1.07,0.24-2.09,0.58-3.21,0.7c-0.55,0.07-1.09,0.17-1.65,0.22l-1.69,0.05c-2.25-0.05-4.59-0.42-6.61-1.5
							c-1.05-0.44-1.93-1.14-2.79-1.83c-0.85-0.68-1.5-1.58-2.18-2.37c-0.23-0.27-0.2-0.67,0.07-0.9c0.21-0.18,0.51-0.2,0.74-0.07
							l0.07,0.04c3.43,2.02,6.94,2.72,10.38,2.03c3.46-0.61,6.85-2.15,10.31-3.87c1.74-0.85,3.49-1.77,5.36-2.64
							c1.87-0.83,3.84-1.74,6.29-2.11c2.38-0.4,5.01-0.02,7.15,1.11c2.13,1.19,3.74,2.92,4.53,5.08c0.12,0.33-0.05,0.71-0.38,0.83
							c-0.21,0.08-0.43,0.04-0.6-0.08L235.38,239.5z"/>
						<path class="st13" d="M253.12,240.11c0.49-2.59,2.18-4.8,4.57-6.29c2.41-1.44,5.43-1.87,8.1-1.45
							c0.68,0.09,1.35,0.21,1.97,0.42c0.62,0.2,1.29,0.35,1.87,0.62l1.75,0.78c0.59,0.26,1.04,0.54,1.57,0.81
							c2.04,1.1,3.99,2.26,5.87,3.4c3.79,2.3,7.31,4.39,11.12,5.09c3.82,0.73,8.05-0.26,12.27-1.69l0.02-0.01
							c0.34-0.11,0.7,0.07,0.81,0.4c0.09,0.27-0.01,0.55-0.22,0.72c-1.82,1.39-3.76,2.73-6,3.61c-1.09,0.5-2.29,0.82-3.49,1.12
							l-1.86,0.28c-0.62,0.07-1.26,0.06-1.89,0.09c-2.55,0.01-5.06-0.58-7.34-1.39c-2.3-0.82-4.39-1.86-6.4-2.89
							c-2.02-1.03-3.94-2.09-5.87-3.05c-0.47-0.23-0.98-0.52-1.42-0.7l-1.31-0.57c-0.87-0.3-1.74-0.64-2.59-0.81
							c-1.7-0.41-3.31-0.54-5.04-0.25c-1.69,0.33-3.58,1.1-5.39,2.36l-0.09,0.06c-0.3,0.21-0.71,0.13-0.92-0.17
							C253.12,240.46,253.09,240.28,253.12,240.11z"/>
					</g>
					<g>
						<g>
							<path class="st13" d="M304.06,206.26c-2.31-1.64-4.73-3.06-7.31-4.14c-2.57-1.08-5.26-1.85-8-2.38
								c-2.74-0.53-5.53-0.78-8.34-0.88c-2.8-0.09-5.66-0.05-8.45,0.18l-0.04,0c-0.35,0.03-0.66-0.23-0.69-0.58
								c-0.02-0.3,0.17-0.57,0.45-0.66c2.86-0.88,5.78-1.27,8.74-1.36c2.95-0.1,5.93,0.2,8.83,0.8c2.91,0.61,5.76,1.55,8.41,2.91
								c2.68,1.31,5.1,3.08,7.22,5.13c0.25,0.24,0.26,0.65,0.01,0.9c-0.22,0.23-0.57,0.26-0.83,0.08L304.06,206.26z"/>
							<g>
								<path class="st13" d="M302.42,204.17c-0.01,0.11-0.03,0.23-0.05,0.34c-0.89,4.99-6.06,8.25-11.56,7.28
									c-5.49-0.98-9.23-5.82-8.34-10.81c0.22-1.18,0.66-2.26,1.3-3.2C289.46,198.21,296.33,199.8,302.42,204.17z"/>
								<circle class="st7" cx="283.45" cy="206.67" r="2.64"/>
							</g>
						</g>
						<g>
							<path class="st13" d="M250.05,198.52c-2.43-1.23-4.94-2.24-7.54-2.9c-2.6-0.66-5.27-1.01-7.94-1.13
								c-2.69-0.12-5.37,0.04-8.06,0.33c-2.68,0.31-5.39,0.74-8.02,1.34l-0.04,0.01c-0.34,0.08-0.68-0.14-0.76-0.48
								c-0.07-0.29,0.08-0.59,0.34-0.71c2.6-1.26,5.32-2.04,8.13-2.54c2.8-0.51,5.68-0.65,8.53-0.48c2.86,0.17,5.71,0.67,8.43,1.6
								c2.74,0.88,5.3,2.23,7.6,3.89c0.28,0.21,0.35,0.6,0.14,0.89c-0.19,0.26-0.53,0.33-0.8,0.19L250.05,198.52z"/>
							<g>
								<path class="st13" d="M248.2,196.73c0,0.11,0.01,0.22,0,0.33c-0.15,4.88-4.61,8.71-9.98,8.55
									c-5.36-0.16-9.61-4.24-9.46-9.12c0.04-1.15,0.31-2.25,0.78-3.23C235.03,192.88,241.79,193.43,248.2,196.73z"/>
								<path class="st7" d="M233.48,201.41c0,1.46-1.18,2.64-2.64,2.64s-2.64-1.18-2.64-2.64c0-1.46,1.18-2.64,2.64-2.64
									S233.48,199.95,233.48,201.41z"/>
							</g>
						</g>
					</g>
				</g>
				<g>
					<path class="st13" d="M247.09,168.13l-1.23,1.3l-0.55,0.57c-0.18,0.19-0.29,0.28-0.44,0.43l-0.4,0.39l-0.32,0.28l-0.31,0.28
						l-0.26,0.18c-0.68,0.48-0.79,0.11-1.08-0.01c-0.54-0.32-1.09-0.64-1.66-0.92c-1.14-0.57-2.29-1.13-3.47-1.59
						c-2.35-0.95-4.74-1.59-7.19-1.94c-1.24-0.21-2.46-0.19-3.76-0.25c-1.24,0.14-2.6,0.11-3.91,0.46c-1.38,0.17-2.7,0.65-4.14,1.06
						c-0.75,0.17-1.4,0.52-2.12,0.8c-0.74,0.27-1.46,0.58-2.26,0.85l-0.09,0.03c-0.35,0.12-0.73-0.07-0.84-0.42
						c-0.06-0.17-0.04-0.35,0.03-0.51c1.47-2.98,3.61-5.87,6.59-7.91c1.42-1.15,3.11-1.87,4.8-2.68c1.76-0.55,3.57-1.17,5.44-1.33
						c3.73-0.51,7.53-0.13,11.05,0.85c1.75,0.53,3.49,1.1,5.11,1.91c0.82,0.38,1.63,0.81,2.43,1.26c0.38,0.25,0.92,0.31,0.9,1.19
						l-0.01,0.33l-0.07,0.44l-0.08,0.44c-0.04,0.16-0.11,0.37-0.16,0.55c-0.07,0.2-0.1,0.35-0.19,0.59l-0.31,0.73l-0.31,0.74
						c-0.09,0.23-0.3,0.61-0.45,0.9c-0.17,0.32-0.38,0.61-0.62,0.87L247.09,168.13z"/>
					<path class="st13" d="M273.66,168.2c-0.08-0.32-0.21-0.74-0.25-0.99l-0.14-0.8l-0.14-0.8c-0.04-0.26-0.03-0.42-0.05-0.64
						c-0.01-0.19-0.03-0.42-0.02-0.59l0.04-0.46l0.04-0.46l0.09-0.35c0.26-0.94,0.91-0.94,1.45-1.17c1.11-0.42,2.22-0.78,3.35-1.11
						c2.24-0.68,4.55-1.12,6.87-1.44c4.66-0.58,9.49-0.47,14.14,0.69c2.32,0.56,4.58,1.39,6.72,2.42c2.12,1.09,4.11,2.35,5.9,3.83
						c3.56,2.99,6.33,6.67,8.06,10.71c0.14,0.34-0.01,0.72-0.35,0.87c-0.21,0.09-0.45,0.06-0.63-0.06l-0.01-0.01
						c-3.54-2.4-7-4.41-10.55-5.76c-3.55-1.33-7.11-2.06-10.69-2.22c-3.57-0.16-7.16,0.19-10.71,0.94c-1.78,0.35-3.53,0.87-5.27,1.4
						c-0.86,0.28-1.73,0.58-2.56,0.91c-0.43,0.13-0.75,0.52-1.45-0.01l-0.27-0.2l-0.31-0.3l-0.32-0.3l-0.38-0.43
						c-0.14-0.16-0.24-0.26-0.4-0.47l-0.49-0.63l-0.49-0.63c-0.16-0.19-0.4-0.55-0.6-0.81l-0.11-0.14
						C273.91,168.89,273.75,168.54,273.66,168.2z"/>
				</g>
				<g>
					<path class="st13" d="M232.82,341.94c0,2.81-2.27,5.08-5.08,5.08c-2.81,0-5.08-2.27-5.08-5.08c0-2.81,2.27-5.08,5.08-5.08
						C230.55,336.86,232.82,339.14,232.82,341.94z"/>
					<path class="st13" d="M265.16,346.64c0,2.81-2.27,5.08-5.08,5.08s-5.08-2.27-5.08-5.08s2.27-5.08,5.08-5.08
						S265.16,343.84,265.16,346.64z"/>
					<path class="st13" d="M221.47,369.17c0,2.81-2.27,5.08-5.08,5.08c-2.81,0-5.08-2.27-5.08-5.08s2.27-5.08,5.08-5.08
						C219.2,364.09,221.47,366.37,221.47,369.17z"/>
					<path class="st13" d="M260.08,377.93c0,2.81-2.27,5.08-5.08,5.08c-2.81,0-5.08-2.27-5.08-5.08s2.27-5.08,5.08-5.08
						C257.81,372.85,260.08,375.12,260.08,377.93z"/>
				</g>
			</g>
		</g>
	</g>
	<text transform="matrix(1 0 0 1 65.1193 437.5548)" class="st11 st14 st15">Odin Recipes</text>
	<g>
		<text transform="matrix(1 0 0 1 189.585 458.3581)" class="st13 st16 st17 st18">LET HIM COOK</text>
	</g>
</g>
</svg>
